<svg width="307" height="304" viewBox="0 0 307 304" fill="none" xmlns="http://www.w3.org/2000/svg">
<path d="M91.9098 232.834L88.2298 253.244C87.9498 253.614 87.6798 253.994 87.4498 254.394L80.9498 265.644C80.7998 265.454 80.6498 265.264 80.5198 265.054L74.2998 252.544C73.7698 251.464 72.4498 251.024 71.3598 251.554C70.2798 252.094 69.8398 253.404 70.3698 254.484L76.6398 267.094C76.6698 267.154 76.7098 267.224 76.7398 267.284C77.2798 268.144 77.9298 268.904 78.6698 269.554L77.7998 271.064C75.2898 270.604 72.6598 271.734 71.3098 274.064C69.5898 277.034 70.6098 280.844 73.5798 282.554C76.5498 284.264 80.3598 283.254 82.0698 280.284C83.3898 278.014 83.0898 275.254 81.5498 273.314L82.4798 271.704C83.4298 271.994 84.4198 272.154 85.4498 272.164L100.24 272.314C101.45 272.324 102.44 271.354 102.45 270.144C102.45 269.734 102.35 269.354 102.16 269.024C101.79 268.374 101.09 267.934 100.28 267.924L85.4898 267.774C85.2498 267.774 85.0098 267.754 84.7698 267.724L91.2198 256.564C91.7098 255.714 92.4098 254.994 93.2398 254.474C93.3198 254.424 93.3998 254.374 93.4698 254.314L107.92 242.444C108.76 241.754 108.95 240.574 108.43 239.664C108.37 239.564 108.3 239.464 108.22 239.364C107.45 238.434 106.07 238.294 105.14 239.064L93.4898 248.634L96.1998 233.594C96.2998 233.064 96.1998 232.544 95.9398 232.114C95.6298 231.574 95.0898 231.174 94.4298 231.054C93.2398 230.844 92.0998 231.634 91.8898 232.824L91.9098 232.834Z" fill="#040184"/>
<path d="M67.8298 206.954L57.3898 224.874C56.9998 225.124 56.6198 225.394 56.2598 225.694L46.2998 234.034C46.2198 233.804 46.1498 233.574 46.0898 233.334L44.5298 219.454C44.3998 218.254 43.3098 217.384 42.1098 217.524C40.9098 217.664 40.0398 218.744 40.1798 219.944L41.7598 233.944C41.7598 234.014 41.7798 234.084 41.7898 234.154C41.9998 235.144 42.3598 236.084 42.8198 236.954L41.4898 238.074C39.2898 236.784 36.4298 236.944 34.3598 238.674C31.7298 240.884 31.3798 244.804 33.5898 247.434C35.7998 250.064 39.7198 250.414 42.3498 248.204C44.3598 246.514 45.0298 243.824 44.2498 241.474L45.6798 240.274C46.4698 240.874 47.3498 241.364 48.3098 241.724L62.1598 246.924C63.2898 247.344 64.5498 246.774 64.9798 245.644C65.1198 245.264 65.1498 244.874 65.0898 244.494C64.9598 243.754 64.4498 243.104 63.6998 242.824L49.8498 237.624C49.6198 237.534 49.3998 237.444 49.1898 237.334L59.0698 229.054C59.8198 228.424 60.7198 227.984 61.6798 227.784C61.7698 227.764 61.8598 227.744 61.9498 227.704L79.5898 221.494C80.6198 221.134 81.1998 220.084 81.0198 219.054C80.9998 218.934 80.9698 218.824 80.9298 218.704C80.5298 217.564 79.2798 216.964 78.1398 217.364L63.9198 222.374L71.6098 209.164C71.8798 208.694 71.9598 208.174 71.8698 207.684C71.7598 207.074 71.3998 206.504 70.8198 206.174C69.7798 205.564 68.4398 205.914 67.8298 206.964V206.954Z" fill="#040184"/>
<path d="M54.0498 174.404L38.1098 187.674C37.6598 187.774 37.2098 187.894 36.7698 188.054L24.5598 192.494C24.5598 192.254 24.5698 192.014 24.5998 191.764L27.8798 178.184C28.1698 177.014 27.4398 175.824 26.2698 175.544C25.0898 175.264 23.9098 175.984 23.6298 177.154L20.3198 190.844C20.2998 190.914 20.2898 190.984 20.2798 191.054C20.1398 192.064 20.1498 193.064 20.2998 194.034L18.6598 194.624C17.0298 192.664 14.2898 191.824 11.7598 192.744C8.52977 193.914 6.86977 197.484 8.03977 200.714C9.20977 203.944 12.7798 205.604 16.0098 204.434C18.4798 203.534 20.0298 201.234 20.0998 198.764L21.8498 198.124C22.3898 198.954 23.0498 199.724 23.8298 200.384L35.0698 210.004C35.9898 210.794 37.3698 210.684 38.1598 209.764C38.4198 209.454 38.5898 209.094 38.6498 208.724C38.7798 207.984 38.5298 207.204 37.9198 206.674L26.6798 197.054C26.4998 196.894 26.3198 196.724 26.1598 196.554L38.2798 192.154C39.1998 191.824 40.1998 191.714 41.1698 191.854C41.2598 191.864 41.3598 191.874 41.4498 191.874L60.1498 192.074C61.2398 192.084 62.1498 191.304 62.3298 190.264C62.3498 190.144 62.3598 190.024 62.3598 189.904C62.3698 188.694 61.3998 187.704 60.1898 187.694L45.1098 187.534L56.8598 177.754C57.2698 177.414 57.5298 176.944 57.6098 176.454C57.7198 175.844 57.5698 175.184 57.1398 174.674C56.3698 173.744 54.9898 173.614 54.0598 174.394L54.0498 174.404Z" fill="#040184"/>
<path d="M52.2398 139.104L32.7198 146.124C32.2598 146.064 31.7998 146.024 31.3298 146.024H18.3398C18.4198 145.794 18.5198 145.564 18.6298 145.344L26.3598 133.704C27.0298 132.704 26.7498 131.334 25.7498 130.664C24.7398 129.994 23.3798 130.274 22.7198 131.274L14.9298 143.014C14.8898 143.074 14.8498 143.134 14.8198 143.194C14.3398 144.094 14.0098 145.034 13.8098 146.004H12.0698C11.2098 143.604 8.91977 141.884 6.22977 141.884C2.79977 141.884 0.00976562 144.664 0.00976562 148.094C0.00976562 151.524 2.78977 154.314 6.21977 154.314C8.84977 154.314 11.0898 152.684 11.9998 150.384H13.8598C14.0798 151.354 14.4398 152.294 14.9398 153.184L22.2098 166.064C22.7998 167.114 24.1398 167.494 25.1898 166.894C25.5398 166.694 25.8198 166.414 26.0098 166.084C26.3798 165.434 26.4198 164.614 26.0198 163.914L18.7498 151.034C18.6298 150.824 18.5298 150.604 18.4398 150.384H31.3298C32.3098 150.384 33.2898 150.634 34.1498 151.094C34.2298 151.134 34.3198 151.174 34.4098 151.214L51.9098 157.794C52.9298 158.174 54.0498 157.754 54.5798 156.844C54.6398 156.744 54.6898 156.634 54.7298 156.514C55.1598 155.384 54.5798 154.124 53.4498 153.694L39.3398 148.384L53.7198 143.214C54.2298 143.034 54.6198 142.684 54.8698 142.254C55.1798 141.714 55.2598 141.044 55.0298 140.414C54.6198 139.274 53.3698 138.684 52.2298 139.094L52.2398 139.104Z" fill="#040184"/>
<path d="M62.6098 105.304L41.8698 105.224C41.4598 105.004 41.0398 104.814 40.5998 104.654L28.3998 100.204C28.5598 100.024 28.7198 99.8436 28.8998 99.6736L40.1398 91.3736C41.1098 90.6636 41.3198 89.2836 40.5998 88.3136C39.8798 87.3436 38.5098 87.1336 37.5398 87.8536L26.2098 96.2136C26.1498 96.2536 26.0998 96.3036 26.0398 96.3536C25.2898 97.0336 24.6498 97.8136 24.1298 98.6436L22.4898 98.0436C22.4998 95.4936 20.9398 93.0936 18.4098 92.1736C15.1798 90.9936 11.6198 92.6636 10.4398 95.8836C9.25977 99.1036 10.9298 102.674 14.1498 103.854C16.6198 104.754 19.2798 103.984 20.9298 102.134L22.6798 102.774C22.5598 103.754 22.5698 104.764 22.7398 105.774L25.1598 120.364C25.3598 121.554 26.4898 122.364 27.6798 122.164C28.0798 122.094 28.4398 121.924 28.7298 121.684C29.2998 121.204 29.6198 120.434 29.4798 119.644L27.0598 105.054C27.0198 104.814 26.9998 104.574 26.9898 104.334L39.0998 108.754C40.0198 109.094 40.8498 109.654 41.5098 110.384C41.5698 110.454 41.6398 110.524 41.7098 110.584L55.9098 122.754C56.7398 123.464 57.9298 123.444 58.7398 122.774C58.8298 122.694 58.9198 122.614 58.9998 122.524C59.7898 121.604 59.6798 120.224 58.7598 119.434L47.3098 109.624L62.5898 109.684C63.1298 109.684 63.6198 109.494 63.9998 109.174C64.4798 108.774 64.7798 108.174 64.7798 107.504C64.7798 106.294 63.8098 105.314 62.5998 105.304H62.6098Z" fill="#040184"/>
<path d="M83.9198 77.0936L64.4598 69.9236C64.1498 69.5836 63.8198 69.2536 63.4598 68.9536L53.5098 60.5936C53.7198 60.4736 53.9398 60.3636 54.1598 60.2636L67.5598 56.3136C68.7198 55.9836 69.3798 54.7536 69.0398 53.5936C68.6998 52.4336 67.4798 51.7736 66.3198 52.1136L52.8098 56.0936C52.7398 56.1136 52.6698 56.1336 52.6098 56.1636C51.6698 56.5436 50.8098 57.0536 50.0298 57.6636L48.6998 56.5436C49.5798 54.1536 48.9398 51.3636 46.8698 49.6236C44.2398 47.4136 40.3198 47.7536 38.1098 50.3836C35.8998 53.0136 36.2398 56.9336 38.8698 59.1436C40.8798 60.8336 43.6498 61.0236 45.8298 59.8436L47.2598 61.0436C46.8098 61.9236 46.4798 62.8836 46.2898 63.8836L43.5798 78.4236C43.3598 79.6136 44.1398 80.7536 45.3298 80.9736C45.7298 81.0436 46.1198 81.0136 46.4798 80.8836C47.1798 80.6236 47.7398 80.0136 47.8898 79.2236L50.5998 64.6836C50.6398 64.4436 50.6998 64.2136 50.7798 63.9836L60.6498 72.2736C61.3998 72.9036 61.9898 73.7136 62.3598 74.6236C62.3998 74.7136 62.4398 74.7936 62.4798 74.8736L71.6598 91.1636C72.1898 92.1136 73.3298 92.5036 74.3098 92.1436C74.4198 92.1036 74.5298 92.0536 74.6398 91.9936C75.6898 91.4036 76.0698 90.0636 75.4698 89.0136L68.0698 75.8736L82.4098 81.1536C82.9198 81.3436 83.4498 81.3236 83.9098 81.1536C84.4898 80.9436 84.9798 80.4836 85.2198 79.8536C85.6398 78.7236 85.0598 77.4636 83.9198 77.0436V77.0936Z" fill="#040184"/>
<path d="M113.58 57.8736L97.7398 44.4836C97.5598 44.0536 97.3598 43.6336 97.1298 43.2336L90.6398 31.9836C90.8798 31.9436 91.1198 31.9136 91.3598 31.9036L105.3 32.7736C106.5 32.8536 107.55 31.9336 107.62 30.7236C107.7 29.5136 106.78 28.4736 105.57 28.4036L91.5098 27.5236C91.4398 27.5236 91.3698 27.5236 91.2998 27.5236C90.2798 27.5636 89.2998 27.7436 88.3698 28.0536L87.4998 26.5436C89.1498 24.5936 89.4998 21.7536 88.1498 19.4236C86.4298 16.4536 82.6298 15.4236 79.6598 17.1436C76.6898 18.8636 75.6598 22.6636 77.3798 25.6336C78.6898 27.9136 81.2298 29.0336 83.6798 28.6736L84.6098 30.2836C83.8798 30.9636 83.2398 31.7436 82.7198 32.6236L75.1998 45.3636C74.5898 46.4036 74.9298 47.7436 75.9698 48.3636C76.3198 48.5736 76.6998 48.6636 77.0798 48.6636C77.8298 48.6636 78.5598 48.2836 78.9698 47.5836L86.4898 34.8436C86.6098 34.6336 86.7498 34.4336 86.8898 34.2436L93.3298 45.4136C93.8198 46.2636 94.0998 47.2236 94.1298 48.2036C94.1298 48.2936 94.1398 48.3936 94.1598 48.4836L97.2098 66.9336C97.3898 68.0036 98.3198 68.7636 99.3698 68.7636C99.4898 68.7636 99.6098 68.7636 99.7298 68.7336C100.92 68.5336 101.73 67.4136 101.53 66.2136L99.0698 51.3336L110.74 61.2036C111.15 61.5536 111.65 61.7236 112.15 61.7236C112.77 61.7236 113.39 61.4636 113.82 60.9436C114.6 60.0236 114.49 58.6436 113.56 57.8536L113.58 57.8736Z" fill="#040184"/>
<path d="M148.04 49.9636L137.74 31.9636C137.72 31.5036 137.68 31.0336 137.6 30.5836L135.35 17.7936C135.59 17.8336 135.82 17.8936 136.06 17.9636L148.86 23.5536C149.96 24.0436 151.26 23.5336 151.74 22.4236C152.22 21.3136 151.72 20.0236 150.61 19.5436L137.7 13.9136C137.63 13.8836 137.57 13.8636 137.5 13.8336C136.53 13.5236 135.54 13.3536 134.56 13.3336L134.26 11.6136C136.47 10.3536 137.77 7.79362 137.31 5.14362C136.72 1.76362 133.49 -0.49638 130.11 0.0936204C126.73 0.68362 124.47 3.91362 125.06 7.29362C125.51 9.88362 127.51 11.8036 129.94 12.3036L130.26 14.1336C129.35 14.5236 128.48 15.0336 127.69 15.6836L116.26 25.0736C115.33 25.8436 115.19 27.2236 115.96 28.1536C116.22 28.4636 116.54 28.6936 116.9 28.8236C117.6 29.0836 118.42 28.9636 119.04 28.4536L130.47 19.0636C130.66 18.9136 130.85 18.7736 131.05 18.6436L133.28 31.3436C133.45 32.3036 133.38 33.3136 133.08 34.2436C133.05 34.3336 133.03 34.4236 133.01 34.5136L129.57 52.8936C129.37 53.9636 129.98 54.9936 130.97 55.3536C131.08 55.3936 131.2 55.4236 131.32 55.4536C132.51 55.6736 133.65 54.8936 133.88 53.7036L136.66 38.8836L144.25 52.1536C144.52 52.6236 144.93 52.9536 145.4 53.1236C145.98 53.3336 146.66 53.3036 147.24 52.9636C148.29 52.3636 148.65 51.0236 148.05 49.9736L148.04 49.9636Z" fill="#040184"/>
<path d="M183.12 54.3136L179.6 33.8736C179.74 33.4336 179.86 32.9836 179.94 32.5236L182.2 19.7336C182.41 19.8536 182.61 19.9836 182.81 20.1336L192.93 29.7636C193.8 30.6036 195.19 30.5636 196.03 29.6836C196.86 28.8036 196.83 27.4236 195.95 26.5836L185.75 16.8736C185.7 16.8236 185.64 16.7736 185.59 16.7336C184.79 16.1136 183.92 15.6136 183 15.2536L183.3 13.5436C185.81 13.1136 187.91 11.1636 188.38 8.50362C188.98 5.12362 186.72 1.89362 183.34 1.29362C179.96 0.69362 176.73 2.95362 176.13 6.33362C175.67 8.92362 176.89 11.4136 179 12.7136L178.68 14.5436C177.69 14.5936 176.7 14.7836 175.73 15.1236L161.78 20.0436C160.64 20.4436 160.04 21.6936 160.44 22.8336C160.58 23.2136 160.81 23.5336 161.1 23.7836C161.67 24.2636 162.48 24.4436 163.24 24.1736L177.19 19.2536C177.42 19.1736 177.65 19.1036 177.88 19.0536L175.63 31.7436C175.46 32.7036 175.05 33.6236 174.45 34.4036C174.39 34.4736 174.34 34.5536 174.29 34.6336L164.77 50.7236C164.22 51.6636 164.44 52.8336 165.24 53.5136C165.33 53.5936 165.43 53.6636 165.54 53.7236C166.58 54.3436 167.92 53.9936 168.54 52.9536L176.22 39.9736L178.82 55.0336C178.91 55.5636 179.19 56.0136 179.57 56.3336C180.05 56.7336 180.69 56.9336 181.35 56.8136C182.54 56.6036 183.34 55.4736 183.14 54.2836L183.12 54.3136Z" fill="#040184"/>
<path d="M214.6 70.3936L218.28 49.9836C218.56 49.6136 218.83 49.2336 219.06 48.8336L225.56 37.5836C225.71 37.7736 225.86 37.9636 225.99 38.1736L232.21 50.6836C232.74 51.7636 234.06 52.2036 235.15 51.6736C236.23 51.1336 236.67 49.8236 236.14 48.7436L229.87 36.1336C229.84 36.0736 229.8 36.0036 229.77 35.9436C229.23 35.0836 228.58 34.3236 227.84 33.6736L228.71 32.1636C231.22 32.6236 233.85 31.4936 235.2 29.1636C236.92 26.1936 235.9 22.3836 232.93 20.6736C229.96 18.9636 226.15 19.9736 224.44 22.9436C223.12 25.2136 223.42 27.9736 224.96 29.9136L224.03 31.5236C223.08 31.2336 222.09 31.0736 221.06 31.0636L206.27 30.9136C205.06 30.9036 204.07 31.8736 204.06 33.0836C204.06 33.4936 204.16 33.8736 204.35 34.2036C204.72 34.8536 205.42 35.2936 206.23 35.3036L221.02 35.4536C221.26 35.4536 221.5 35.4736 221.74 35.5036L215.29 46.6636C214.8 47.5136 214.1 48.2336 213.27 48.7536C213.19 48.8036 213.11 48.8536 213.04 48.9136L198.59 60.7836C197.75 61.4736 197.56 62.6536 198.08 63.5636C198.14 63.6636 198.21 63.7636 198.29 63.8636C199.06 64.7936 200.44 64.9336 201.37 64.1636L213.02 54.5936L210.31 69.6336C210.21 70.1636 210.31 70.6836 210.57 71.1136C210.88 71.6536 211.42 72.0536 212.08 72.1736C213.27 72.3836 214.41 71.5936 214.62 70.4036L214.6 70.3936Z" fill="#040184"/>
<path d="M238.68 96.2736L249.12 78.3536C249.51 78.1036 249.89 77.8336 250.25 77.5336L260.21 69.1936C260.29 69.4236 260.36 69.6536 260.42 69.8936L261.98 83.7736C262.11 84.9736 263.2 85.8436 264.4 85.7036C265.6 85.5636 266.47 84.4836 266.33 83.2836L264.75 69.2836C264.75 69.2136 264.73 69.1436 264.72 69.0736C264.51 68.0836 264.15 67.1436 263.69 66.2736L265.02 65.1536C267.22 66.4436 270.08 66.2836 272.15 64.5536C274.78 62.3436 275.13 58.4236 272.92 55.7936C270.71 53.1636 266.79 52.8136 264.16 55.0236C262.15 56.7136 261.48 59.4036 262.26 61.7536L260.83 62.9536C260.04 62.3536 259.16 61.8636 258.2 61.5036L244.35 56.3036C243.22 55.8836 241.96 56.4536 241.53 57.5836C241.39 57.9636 241.36 58.3536 241.42 58.7336C241.55 59.4736 242.06 60.1236 242.81 60.4036L256.66 65.6036C256.89 65.6936 257.11 65.7836 257.32 65.8936L247.44 74.1736C246.69 74.8036 245.79 75.2436 244.83 75.4436C244.74 75.4636 244.65 75.4836 244.56 75.5236L226.92 81.7336C225.89 82.0936 225.31 83.1436 225.49 84.1736C225.51 84.2936 225.54 84.4036 225.58 84.5236C225.98 85.6636 227.23 86.2636 228.37 85.8636L242.59 80.8536L234.9 94.0636C234.63 94.5336 234.55 95.0536 234.64 95.5436C234.75 96.1536 235.11 96.7236 235.69 97.0536C236.73 97.6636 238.07 97.3136 238.68 96.2636V96.2736Z" fill="#040184"/>
<path d="M252.45 128.824L268.39 115.554C268.84 115.454 269.29 115.334 269.73 115.174L281.94 110.734C281.94 110.974 281.93 111.214 281.9 111.464L278.62 125.044C278.33 126.214 279.06 127.404 280.23 127.684C281.41 127.964 282.59 127.244 282.87 126.074L286.18 112.384C286.2 112.314 286.21 112.244 286.22 112.174C286.36 111.164 286.35 110.164 286.2 109.194L287.84 108.604C289.47 110.564 292.21 111.404 294.74 110.484C297.97 109.314 299.63 105.744 298.46 102.514C297.29 99.2836 293.72 97.6236 290.49 98.7936C288.02 99.6936 286.47 101.994 286.4 104.464L284.65 105.104C284.11 104.274 283.45 103.504 282.67 102.844L271.43 93.2236C270.51 92.4336 269.13 92.5436 268.34 93.4636C268.08 93.7736 267.91 94.1336 267.85 94.5036C267.72 95.2436 267.97 96.0236 268.58 96.5536L279.82 106.174C280 106.334 280.18 106.504 280.34 106.674L268.22 111.074C267.3 111.404 266.3 111.514 265.33 111.374C265.24 111.364 265.14 111.354 265.05 111.354L246.35 111.154C245.26 111.144 244.35 111.924 244.17 112.964C244.15 113.084 244.14 113.204 244.14 113.324C244.13 114.534 245.1 115.524 246.31 115.534L261.39 115.694L249.64 125.474C249.23 125.814 248.97 126.284 248.89 126.774C248.78 127.384 248.93 128.044 249.36 128.554C250.13 129.484 251.51 129.614 252.44 128.834L252.45 128.824Z" fill="#040184"/>
<path d="M254.27 164.134L273.79 157.114C274.25 157.174 274.71 157.214 275.18 157.214H288.17C288.09 157.444 287.99 157.674 287.88 157.894L280.15 169.534C279.48 170.534 279.76 171.904 280.76 172.574C281.77 173.244 283.13 172.964 283.79 171.964L291.58 160.224C291.62 160.164 291.66 160.104 291.69 160.044C292.17 159.144 292.5 158.204 292.7 157.234H294.44C295.3 159.634 297.59 161.354 300.28 161.354C303.71 161.354 306.5 158.574 306.5 155.144C306.5 151.714 303.72 148.924 300.29 148.924C297.66 148.924 295.42 150.554 294.51 152.854H292.65C292.43 151.884 292.07 150.944 291.57 150.054L284.3 137.174C283.71 136.124 282.37 135.744 281.32 136.344C280.97 136.544 280.69 136.824 280.5 137.154C280.13 137.804 280.09 138.624 280.49 139.324L287.76 152.204C287.88 152.414 287.98 152.634 288.07 152.854H275.18C274.2 152.854 273.22 152.604 272.36 152.144C272.28 152.104 272.19 152.064 272.1 152.024L254.6 145.444C253.58 145.064 252.46 145.484 251.93 146.394C251.87 146.494 251.82 146.604 251.78 146.724C251.35 147.854 251.93 149.114 253.06 149.544L267.17 154.854L252.79 160.024C252.28 160.204 251.89 160.554 251.64 160.984C251.33 161.524 251.25 162.194 251.48 162.824C251.89 163.964 253.14 164.554 254.28 164.144L254.27 164.134Z" fill="#040184"/>
<path d="M243.89 197.924L264.63 198.004C265.04 198.224 265.46 198.414 265.9 198.574L278.1 203.024C277.94 203.204 277.78 203.384 277.6 203.554L266.36 211.854C265.39 212.564 265.18 213.944 265.9 214.914C266.62 215.884 267.99 216.094 268.96 215.374L280.29 207.014C280.35 206.974 280.4 206.924 280.46 206.874C281.21 206.194 281.85 205.414 282.37 204.584L284.01 205.184C284 207.734 285.56 210.134 288.09 211.054C291.32 212.234 294.88 210.564 296.06 207.344C297.24 204.124 295.57 200.554 292.35 199.374C289.88 198.474 287.22 199.244 285.57 201.094L283.82 200.454C283.94 199.474 283.93 198.464 283.76 197.454L281.34 182.864C281.14 181.674 280.01 180.864 278.82 181.064C278.42 181.134 278.06 181.304 277.77 181.544C277.2 182.024 276.88 182.794 277.02 183.584L279.44 198.174C279.48 198.414 279.5 198.654 279.51 198.894L267.4 194.474C266.48 194.134 265.65 193.574 264.99 192.844C264.93 192.774 264.86 192.704 264.79 192.644L250.59 180.474C249.76 179.764 248.57 179.784 247.76 180.454C247.67 180.534 247.58 180.614 247.5 180.704C246.71 181.624 246.82 183.004 247.74 183.794L259.19 193.604L243.91 193.544C243.37 193.544 242.88 193.734 242.5 194.054C242.02 194.454 241.72 195.054 241.72 195.724C241.72 196.934 242.69 197.914 243.9 197.924H243.89Z" fill="#040184"/>
<path d="M222.59 226.134L242.05 233.304C242.36 233.644 242.69 233.974 243.05 234.274L253 242.634C252.79 242.754 252.57 242.864 252.35 242.964L238.95 246.914C237.79 247.244 237.13 248.474 237.47 249.634C237.81 250.794 239.03 251.454 240.19 251.114L253.7 247.134C253.77 247.114 253.84 247.094 253.9 247.064C254.84 246.684 255.7 246.174 256.48 245.564L257.81 246.684C256.93 249.074 257.57 251.864 259.64 253.604C262.27 255.814 266.19 255.474 268.4 252.844C270.61 250.214 270.27 246.294 267.64 244.084C265.63 242.394 262.86 242.204 260.68 243.384L259.25 242.184C259.7 241.304 260.03 240.344 260.22 239.344L262.93 224.804C263.15 223.614 262.37 222.474 261.18 222.254C260.78 222.184 260.39 222.214 260.03 222.344C259.33 222.604 258.77 223.214 258.62 224.004L255.91 238.544C255.87 238.784 255.81 239.014 255.73 239.244L245.86 230.954C245.11 230.324 244.52 229.514 244.15 228.604C244.11 228.514 244.07 228.434 244.03 228.354L234.85 212.064C234.32 211.114 233.18 210.724 232.2 211.084C232.09 211.124 231.98 211.174 231.87 211.234C230.82 211.824 230.44 213.164 231.04 214.214L238.44 227.354L224.1 222.074C223.59 221.884 223.06 221.904 222.6 222.074C222.02 222.284 221.53 222.744 221.29 223.374C220.87 224.504 221.45 225.764 222.59 226.184V226.134Z" fill="#040184"/>
<path d="M192.92 245.354L208.76 258.744C208.94 259.174 209.14 259.594 209.37 259.994L215.86 271.244C215.62 271.284 215.38 271.314 215.14 271.324L201.2 270.454C200 270.374 198.95 271.294 198.88 272.504C198.8 273.714 199.72 274.754 200.93 274.824L214.99 275.704C215.06 275.704 215.13 275.704 215.2 275.704C216.22 275.664 217.2 275.484 218.13 275.174L219 276.684C217.35 278.634 217 281.474 218.35 283.804C220.07 286.774 223.87 287.804 226.84 286.084C229.81 284.364 230.84 280.564 229.12 277.594C227.81 275.314 225.27 274.194 222.82 274.554L221.89 272.944C222.62 272.264 223.26 271.484 223.78 270.604L231.3 257.864C231.91 256.824 231.57 255.484 230.53 254.864C230.18 254.654 229.8 254.564 229.42 254.564C228.67 254.564 227.94 254.944 227.53 255.644L220.01 268.384C219.89 268.594 219.75 268.794 219.61 268.984L213.17 257.814C212.68 256.964 212.4 256.004 212.37 255.024C212.37 254.934 212.36 254.834 212.34 254.744L209.29 236.294C209.11 235.224 208.18 234.464 207.13 234.464C207.01 234.464 206.89 234.464 206.77 234.494C205.58 234.694 204.77 235.814 204.97 237.014L207.43 251.894L195.76 242.024C195.35 241.674 194.85 241.504 194.35 241.504C193.73 241.504 193.11 241.764 192.68 242.284C191.9 243.204 192.01 244.584 192.94 245.374L192.92 245.354Z" fill="#040184"/>
<path d="M158.47 253.264L168.77 271.264C168.79 271.724 168.83 272.194 168.91 272.644L171.16 285.434C170.92 285.394 170.69 285.334 170.45 285.264L157.65 279.674C156.55 279.184 155.25 279.694 154.77 280.804C154.29 281.914 154.79 283.204 155.9 283.684L168.81 289.314C168.88 289.344 168.94 289.364 169.01 289.394C169.98 289.704 170.97 289.874 171.95 289.894L172.25 291.614C170.04 292.874 168.74 295.434 169.2 298.084C169.79 301.464 173.02 303.724 176.4 303.134C179.78 302.544 182.04 299.314 181.45 295.934C181 293.344 179 291.424 176.57 290.924L176.25 289.094C177.16 288.704 178.03 288.194 178.82 287.544L190.25 278.154C191.18 277.384 191.32 276.004 190.55 275.074C190.29 274.764 189.97 274.534 189.61 274.404C188.91 274.144 188.09 274.264 187.47 274.774L176.04 284.164C175.85 284.314 175.66 284.454 175.46 284.584L173.23 271.884C173.06 270.924 173.13 269.914 173.43 268.984C173.46 268.894 173.48 268.804 173.5 268.714L176.94 250.334C177.14 249.264 176.53 248.234 175.54 247.874C175.43 247.834 175.31 247.804 175.19 247.774C174 247.554 172.86 248.334 172.63 249.524L169.85 264.344L162.26 251.074C161.99 250.604 161.58 250.274 161.11 250.104C160.53 249.894 159.85 249.924 159.27 250.264C158.22 250.864 157.86 252.204 158.46 253.254L158.47 253.264Z" fill="#040184"/>
<path d="M123.39 248.924L126.91 269.364C126.77 269.804 126.65 270.254 126.57 270.714L124.31 283.504C124.1 283.384 123.9 283.254 123.7 283.104L113.58 273.474C112.71 272.634 111.32 272.674 110.48 273.554C109.65 274.434 109.68 275.814 110.56 276.654L120.76 286.364C120.81 286.414 120.87 286.464 120.92 286.504C121.72 287.124 122.59 287.624 123.51 287.984L123.21 289.694C120.7 290.124 118.6 292.074 118.13 294.734C117.53 298.114 119.79 301.344 123.17 301.944C126.55 302.544 129.78 300.284 130.38 296.904C130.84 294.314 129.62 291.824 127.51 290.524L127.83 288.694C128.82 288.644 129.81 288.454 130.78 288.114L144.73 283.194C145.87 282.794 146.47 281.544 146.07 280.404C145.93 280.024 145.7 279.704 145.41 279.454C144.84 278.974 144.03 278.794 143.27 279.064L129.32 283.984C129.09 284.064 128.86 284.134 128.63 284.184L130.88 271.494C131.05 270.534 131.46 269.614 132.06 268.834C132.12 268.764 132.17 268.684 132.22 268.604L141.74 252.514C142.29 251.574 142.07 250.404 141.27 249.724C141.18 249.644 141.08 249.574 140.97 249.514C139.93 248.894 138.59 249.244 137.97 250.284L130.29 263.264L127.69 248.204C127.6 247.674 127.32 247.224 126.94 246.904C126.46 246.504 125.82 246.304 125.16 246.424C123.97 246.634 123.17 247.764 123.37 248.954L123.39 248.924Z" fill="#040184"/>
<path d="M153.25 241.774C203.044 241.774 243.41 201.408 243.41 151.614C243.41 101.82 203.044 61.4536 153.25 61.4536C103.456 61.4536 63.0898 101.82 63.0898 151.614C63.0898 201.408 103.456 241.774 153.25 241.774Z" fill="#040184"/>
<path d="M147.18 195.994L135.41 180.794C134.92 180.164 134.12 179.844 133.33 179.974L116.85 182.624L114.81 171.374L127.76 175.484C127.98 175.554 128.2 175.584 128.42 175.584C129.35 175.584 130.21 174.984 130.51 174.054C130.88 172.904 130.24 171.674 129.09 171.304L113.93 166.494L113.73 165.394C115.66 164.194 116.76 161.894 116.33 159.524C115.77 156.424 112.79 154.364 109.69 154.924C106.59 155.484 104.53 158.464 105.09 161.564C105.51 163.874 107.26 165.604 109.41 166.104L112.94 185.504C113.15 186.674 114.26 187.464 115.44 187.274L132.75 184.484L143.73 198.654C144.16 199.214 144.81 199.504 145.46 199.504C145.93 199.504 146.4 199.354 146.8 199.044C147.76 198.304 147.93 196.924 147.19 195.974L147.18 195.994Z" fill="white"/>
<path d="M131 187.754C129.79 187.754 128.81 188.734 128.81 189.944C128.81 197.714 122.49 204.044 114.71 204.044C106.93 204.044 100.61 197.724 100.61 189.944C100.61 184.804 103.41 180.074 107.91 177.594C108.97 177.014 109.35 175.674 108.77 174.624C108.19 173.564 106.85 173.184 105.8 173.764C99.8998 177.014 96.2398 183.224 96.2398 189.954C96.2398 200.144 104.53 208.424 114.71 208.424C124.89 208.424 133.18 200.134 133.18 189.954C133.18 188.744 132.2 187.764 130.99 187.764L131 187.754Z" fill="white"/>
<path d="M152.12 115.604C145.86 105.144 134.41 98.6336 122.23 98.6336C121.98 98.6336 121.72 98.6536 121.47 98.6636L120.36 92.1636C120.16 90.9736 119.02 90.1736 117.83 90.3736C116.64 90.5736 115.84 91.7136 116.04 92.9036L117.09 99.0336C115.54 99.2736 114.01 99.6136 112.52 100.044C112.38 100.074 112.25 100.114 112.13 100.164C103.97 102.664 96.8198 108.104 92.3398 115.594C91.9298 116.284 91.9298 117.154 92.3398 117.844C94.7998 121.954 98.0698 125.444 101.86 128.174C102.04 128.344 102.24 128.494 102.46 128.594C108.2 132.554 115.09 134.804 122.23 134.804C122.56 134.804 122.88 134.784 123.21 134.774L124.46 142.094C124.64 143.164 125.57 143.914 126.62 143.914C126.74 143.914 126.87 143.904 126.99 143.884C128.18 143.684 128.98 142.544 128.78 141.354L127.58 134.374C137.68 132.774 146.78 126.754 152.11 117.844C152.52 117.154 152.52 116.284 152.11 115.594L152.12 115.604ZM122.23 103.014C129.78 103.024 135.93 109.174 135.93 116.724C135.93 122.684 132.1 127.754 126.77 129.634L126.06 125.474C129.43 123.994 131.78 120.634 131.78 116.724C131.78 111.684 127.88 107.564 122.93 107.204L122.21 103.014C122.21 103.014 122.22 103.014 122.23 103.014ZM118.61 107.884C117.81 108.214 117.06 108.654 116.39 109.174L115.47 103.794C116.25 103.614 117.04 103.464 117.83 103.344L118.61 107.874V107.884ZM112.85 128.934L109.01 106.084C109.74 105.724 110.49 105.394 111.25 105.094L112.89 114.724C112.75 115.374 112.68 116.034 112.68 116.724C112.68 118.544 113.2 120.244 114.08 121.684L115.44 129.634C114.57 129.434 113.7 129.204 112.85 128.924V128.934ZM105.38 125.304L102.72 110.134C103.44 109.534 104.18 108.964 104.95 108.434L108.06 126.904C107.14 126.414 106.25 125.884 105.38 125.304ZM96.7998 116.734C97.4598 115.744 98.1698 114.794 98.9298 113.894L100.17 120.954C98.9298 119.654 97.7998 118.254 96.7998 116.734ZM119.99 130.354L119.21 125.794C120.01 126.064 120.86 126.214 121.74 126.264L122.45 130.424C122.37 130.424 122.29 130.434 122.22 130.434C121.47 130.444 120.73 130.404 119.99 130.354ZM137.57 126.244C139.29 123.474 140.3 120.224 140.3 116.734C140.3 113.244 139.29 109.994 137.57 107.224C141.56 109.564 145.04 112.794 147.65 116.734C145.05 120.684 141.57 123.904 137.57 126.244Z" fill="white"/>
<path d="M206.26 87.4536C205.34 86.6636 203.96 86.7736 203.17 87.6936L196.72 95.2236C196.29 94.9436 195.84 94.6636 195.37 94.4236C188.76 90.9936 179.6 92.0936 173.08 97.1136C166.18 102.414 163.48 111.054 165.66 120.814C165.92 121.994 167.1 122.734 168.27 122.474C169.45 122.214 170.19 121.044 169.93 119.864C167.48 108.874 172.52 103.074 175.75 100.594C180.88 96.6436 188.29 95.6836 193.35 98.3236C195.99 99.6936 199.09 102.624 198.82 108.754C198.36 119.314 193.56 121.754 189.7 123.714C187.04 125.064 183.73 126.744 184.47 131.044C185.28 135.784 183.06 138.824 180.46 139.374C177.92 139.914 175.72 138.044 174.87 134.614C174.58 133.444 173.39 132.724 172.22 133.024C171.05 133.314 170.33 134.504 170.63 135.684C172.07 141.454 176.05 143.844 179.69 143.844C180.26 143.844 180.83 143.784 181.37 143.674C186.03 142.694 190.07 137.794 188.8 130.324C188.65 129.434 188.73 129.134 191.7 127.624C196.06 125.414 202.65 122.074 203.22 108.954C203.41 104.664 202.28 100.984 200.01 98.1736L206.53 90.5636C207.32 89.6436 207.21 88.2636 206.29 87.4736L206.26 87.4536Z" fill="white"/>
<path d="M188.16 107.944C187.28 107.124 185.89 107.164 185.07 108.054L156.05 139.124C155.22 140.004 155.27 141.394 156.16 142.214C156.58 142.604 157.12 142.804 157.65 142.804C158.24 142.804 158.82 142.574 159.25 142.104L188.27 111.034C189.1 110.154 189.05 108.764 188.16 107.944Z" fill="white"/>
<path d="M194.47 112.024C194.47 112.024 194.53 112.024 194.57 112.024C195.74 112.024 196.7 111.104 196.76 109.934C197 104.464 194.88 101.744 193.06 100.424C189.76 98.0336 185.12 98.4836 182.14 99.5936C181.01 100.014 180.43 101.284 180.86 102.414C181.28 103.544 182.55 104.124 183.68 103.694C185.72 102.924 188.73 102.684 190.49 103.964C191.87 104.964 192.51 106.904 192.38 109.734C192.33 110.944 193.26 111.964 194.47 112.014V112.024Z" fill="white"/>
<path d="M179.71 176.874L182.19 176.794C183.4 176.754 184.35 175.744 184.31 174.534C184.27 173.324 183.28 172.394 182.05 172.414L179.57 172.494C178.36 172.534 177.41 173.544 177.45 174.754C177.49 175.934 178.46 176.874 179.64 176.874C179.66 176.874 179.69 176.874 179.71 176.874Z" fill="white"/>
<path d="M200.47 172.414C200.47 172.414 200.42 172.414 200.4 172.414L197.92 172.494C196.71 172.534 195.76 173.544 195.8 174.754C195.84 175.934 196.81 176.874 197.99 176.874C198.01 176.874 198.04 176.874 198.06 176.874L200.54 176.794C201.75 176.754 202.7 175.744 202.66 174.534C202.62 173.354 201.65 172.414 200.47 172.414Z" fill="white"/>
<path d="M212.49 173.494C212.76 163.724 208.05 159.574 204.02 157.814C197.47 154.954 188.78 156.884 185.36 159.214C185.15 159.084 184.94 158.954 184.72 158.834C179.28 155.824 171.73 156.424 165.94 160.324C160.55 163.954 157.9 169.614 158.65 175.834C158.8 177.034 159.89 177.894 161.09 177.744C162.29 177.594 163.15 176.504 163 175.304C162.25 169.094 166.05 165.524 168.39 163.944C172.78 160.984 178.63 160.454 182.6 162.654C183.06 162.904 183.48 163.194 183.88 163.514C184.09 163.864 184.39 164.124 184.73 164.304C186.81 166.454 187.84 169.654 187.7 173.734C187.65 175.134 188.45 176.644 189.74 178.974C190.38 180.134 191.46 182.074 191.49 182.704C191.49 182.774 191.49 182.834 191.48 182.884C191.39 182.884 191.3 182.884 191.23 182.874C190.65 182.844 189.86 182.794 189.1 183.264C187.82 184.064 187.79 185.494 187.76 187.304C187.75 188.024 187.72 189.494 187.53 189.994C187 190.454 185.71 190.544 185.15 190.584C184.57 190.624 182.79 190.754 182.51 192.534C182.38 193.344 182.58 194.474 184.31 195.184C184.72 195.354 185.14 195.504 185.56 195.654C187.54 196.364 187.91 196.634 188.06 197.484C188.47 199.874 188.09 201.474 186.95 202.244C184.14 204.124 175.81 202.564 165.31 195.974C164.29 195.334 162.93 195.644 162.29 196.664C161.65 197.684 161.96 199.044 162.98 199.684C167.14 202.294 171.89 204.684 176.38 206.084C176.53 206.164 176.69 206.234 176.86 206.274C180.18 207.154 185.93 208.674 191.71 208.674C199.03 208.674 206.4 206.234 208.99 196.974C209.25 196.034 209.59 194.494 209.94 192.864C210.37 190.904 211.06 187.704 211.43 186.754C213.14 184.954 214.77 179.984 214.9 177.344C215.02 174.884 213.25 173.914 212.47 173.494H212.49ZM208.38 183.644C207.39 184.394 206.98 185.964 205.68 191.934C205.34 193.504 205.02 194.974 204.79 195.794C202.92 202.504 197.59 204.474 191.09 204.294C192.24 202.764 193.02 200.404 192.4 196.744C192.37 196.564 192.31 196.414 192.27 196.244C197.56 195.574 199.73 193.554 199.98 193.314L198.43 191.764L196.93 190.174C196.93 190.174 195.4 191.494 191.46 191.934C192.08 190.624 192.13 188.924 192.16 187.384C192.16 187.334 192.16 187.294 192.16 187.244C192.89 187.184 193.75 186.954 194.51 186.274C195.36 185.504 195.82 184.374 195.89 182.894C195.97 181.134 194.81 179.054 193.59 176.854C193.03 175.854 192.2 174.354 192.1 173.814C192.24 169.124 191.08 165.184 188.79 162.264C191.32 161.124 197.23 159.744 202.08 161.734C206.36 163.504 208.39 167.574 208.11 173.834C208.01 176.054 209.7 176.954 210.42 177.344C210.46 177.364 210.5 177.384 210.55 177.414C210.34 179.714 208.94 182.864 208.4 183.644H208.38Z" fill="white"/>
</svg>
