<svg width="307" height="304" viewBox="0 0 307 304" fill="none" xmlns="http://www.w3.org/2000/svg">
<path d="M91.9 232.834L88.22 253.244C87.94 253.614 87.67 253.994 87.44 254.394L80.94 265.644C80.79 265.454 80.64 265.264 80.51 265.054L74.29 252.544C73.76 251.464 72.44 251.024 71.35 251.554C70.27 252.094 69.83 253.404 70.36 254.484L76.63 267.094C76.66 267.154 76.7 267.224 76.73 267.284C77.27 268.144 77.92 268.904 78.66 269.554L77.79 271.064C75.28 270.604 72.65 271.734 71.3 274.064C69.58 277.034 70.6 280.844 73.57 282.554C76.54 284.264 80.35 283.254 82.06 280.284C83.38 278.014 83.08 275.254 81.54 273.314L82.47 271.704C83.42 271.994 84.41 272.154 85.44 272.164L100.23 272.314C101.44 272.324 102.43 271.354 102.44 270.144C102.44 269.734 102.34 269.354 102.15 269.024C101.78 268.374 101.08 267.934 100.27 267.924L85.48 267.774C85.24 267.774 85 267.754 84.76 267.724L91.21 256.564C91.7 255.714 92.4 254.994 93.23 254.474C93.31 254.424 93.39 254.374 93.46 254.314L107.91 242.444C108.75 241.754 108.94 240.574 108.42 239.664C108.36 239.564 108.29 239.464 108.21 239.364C107.44 238.434 106.06 238.294 105.13 239.064L93.48 248.634L96.19 233.594C96.29 233.064 96.19 232.544 95.93 232.114C95.62 231.574 95.08 231.174 94.42 231.054C93.23 230.844 92.09 231.634 91.88 232.824L91.9 232.834Z" fill="white"/>
<path d="M67.82 206.954L57.38 224.874C56.99 225.124 56.61 225.394 56.25 225.694L46.29 234.034C46.21 233.804 46.14 233.574 46.08 233.334L44.52 219.454C44.39 218.254 43.3 217.384 42.1 217.524C40.9 217.664 40.03 218.744 40.17 219.944L41.75 233.944C41.75 234.014 41.77 234.084 41.78 234.154C41.99 235.144 42.35 236.084 42.81 236.954L41.48 238.074C39.28 236.784 36.42 236.944 34.35 238.674C31.72 240.884 31.37 244.804 33.58 247.434C35.79 250.064 39.71 250.414 42.34 248.204C44.35 246.514 45.02 243.824 44.24 241.474L45.67 240.274C46.46 240.874 47.34 241.364 48.3 241.724L62.15 246.924C63.28 247.344 64.54 246.774 64.97 245.644C65.11 245.264 65.14 244.874 65.08 244.494C64.95 243.754 64.44 243.104 63.69 242.824L49.84 237.624C49.61 237.534 49.39 237.444 49.18 237.334L59.06 229.054C59.81 228.424 60.71 227.984 61.67 227.784C61.76 227.764 61.85 227.744 61.94 227.704L79.58 221.494C80.61 221.134 81.19 220.084 81.01 219.054C80.99 218.934 80.96 218.824 80.92 218.704C80.52 217.564 79.27 216.964 78.13 217.364L63.91 222.374L71.6 209.164C71.87 208.694 71.95 208.174 71.86 207.684C71.75 207.074 71.39 206.504 70.81 206.174C69.77 205.564 68.43 205.914 67.82 206.964V206.954Z" fill="white"/>
<path d="M54.04 174.404L38.1 187.674C37.65 187.774 37.2 187.894 36.76 188.054L24.55 192.494C24.55 192.254 24.56 192.014 24.59 191.764L27.87 178.184C28.16 177.014 27.43 175.824 26.26 175.544C25.08 175.264 23.9 175.984 23.62 177.154L20.31 190.844C20.29 190.914 20.28 190.984 20.27 191.054C20.13 192.064 20.14 193.064 20.29 194.034L18.65 194.624C17.02 192.664 14.28 191.824 11.75 192.744C8.52 193.914 6.86 197.484 8.03 200.714C9.2 203.944 12.77 205.604 16 204.434C18.47 203.534 20.02 201.234 20.09 198.764L21.84 198.124C22.38 198.954 23.04 199.724 23.82 200.384L35.06 210.004C35.98 210.794 37.36 210.684 38.15 209.764C38.41 209.454 38.58 209.094 38.64 208.724C38.77 207.984 38.52 207.204 37.91 206.674L26.67 197.054C26.49 196.894 26.31 196.724 26.15 196.554L38.27 192.154C39.19 191.824 40.19 191.714 41.16 191.854C41.25 191.864 41.35 191.874 41.44 191.874L60.14 192.074C61.23 192.084 62.14 191.304 62.32 190.264C62.34 190.144 62.35 190.024 62.35 189.904C62.36 188.694 61.39 187.704 60.18 187.694L45.1 187.534L56.85 177.754C57.26 177.414 57.52 176.944 57.6 176.454C57.71 175.844 57.56 175.184 57.13 174.674C56.36 173.744 54.98 173.614 54.05 174.394L54.04 174.404Z" fill="white"/>
<path d="M52.23 139.104L32.71 146.124C32.25 146.064 31.79 146.024 31.32 146.024H18.33C18.41 145.794 18.51 145.564 18.62 145.344L26.35 133.704C27.02 132.704 26.74 131.334 25.74 130.664C24.73 129.994 23.37 130.274 22.71 131.274L14.92 143.014C14.88 143.074 14.84 143.134 14.81 143.194C14.33 144.094 14 145.034 13.8 146.004H12.06C11.2 143.604 8.91 141.884 6.22 141.884C2.79 141.884 0 144.664 0 148.094C0 151.524 2.78 154.314 6.21 154.314C8.84 154.314 11.08 152.684 11.99 150.384H13.85C14.07 151.354 14.43 152.294 14.93 153.184L22.2 166.064C22.79 167.114 24.13 167.494 25.18 166.894C25.53 166.694 25.81 166.414 26 166.084C26.37 165.434 26.41 164.614 26.01 163.914L18.74 151.034C18.62 150.824 18.52 150.604 18.43 150.384H31.32C32.3 150.384 33.28 150.634 34.14 151.094C34.22 151.134 34.31 151.174 34.4 151.214L51.9 157.794C52.92 158.174 54.04 157.754 54.57 156.844C54.63 156.744 54.68 156.634 54.72 156.514C55.15 155.384 54.57 154.124 53.44 153.694L39.33 148.384L53.71 143.214C54.22 143.034 54.61 142.684 54.86 142.254C55.17 141.714 55.25 141.044 55.02 140.414C54.61 139.274 53.36 138.684 52.22 139.094L52.23 139.104Z" fill="white"/>
<path d="M62.6 105.304L41.86 105.224C41.45 105.004 41.03 104.814 40.59 104.654L28.39 100.204C28.55 100.024 28.71 99.8436 28.89 99.6736L40.13 91.3736C41.1 90.6636 41.31 89.2836 40.59 88.3136C39.87 87.3436 38.5 87.1336 37.53 87.8536L26.2 96.2136C26.14 96.2536 26.09 96.3036 26.03 96.3536C25.28 97.0336 24.64 97.8136 24.12 98.6436L22.48 98.0436C22.49 95.4936 20.93 93.0936 18.4 92.1736C15.17 90.9936 11.61 92.6636 10.43 95.8836C9.25 99.1036 10.92 102.674 14.14 103.854C16.61 104.754 19.27 103.984 20.92 102.134L22.67 102.774C22.55 103.754 22.56 104.764 22.73 105.774L25.15 120.364C25.35 121.554 26.48 122.364 27.67 122.164C28.07 122.094 28.43 121.924 28.72 121.684C29.29 121.204 29.61 120.434 29.47 119.644L27.05 105.054C27.01 104.814 26.99 104.574 26.98 104.334L39.09 108.754C40.01 109.094 40.84 109.654 41.5 110.384C41.56 110.454 41.63 110.524 41.7 110.584L55.9 122.754C56.73 123.464 57.92 123.444 58.73 122.774C58.82 122.694 58.91 122.614 58.99 122.524C59.78 121.604 59.67 120.224 58.75 119.434L47.3 109.624L62.58 109.684C63.12 109.684 63.61 109.494 63.99 109.174C64.47 108.774 64.77 108.174 64.77 107.504C64.77 106.294 63.8 105.314 62.59 105.304H62.6Z" fill="white"/>
<path d="M83.91 77.0936L64.45 69.9236C64.14 69.5836 63.81 69.2536 63.45 68.9536L53.5 60.5936C53.71 60.4736 53.93 60.3636 54.15 60.2636L67.55 56.3136C68.71 55.9836 69.37 54.7536 69.03 53.5936C68.69 52.4336 67.47 51.7736 66.31 52.1136L52.8 56.0936C52.73 56.1136 52.66 56.1336 52.6 56.1636C51.66 56.5436 50.8 57.0536 50.02 57.6636L48.69 56.5436C49.57 54.1536 48.93 51.3636 46.86 49.6236C44.23 47.4136 40.31 47.7536 38.1 50.3836C35.89 53.0136 36.23 56.9336 38.86 59.1436C40.87 60.8336 43.64 61.0236 45.82 59.8436L47.25 61.0436C46.8 61.9236 46.47 62.8836 46.28 63.8836L43.57 78.4236C43.35 79.6136 44.13 80.7536 45.32 80.9736C45.72 81.0436 46.11 81.0136 46.47 80.8836C47.17 80.6236 47.73 80.0136 47.88 79.2236L50.59 64.6836C50.63 64.4436 50.69 64.2136 50.77 63.9836L60.64 72.2736C61.39 72.9036 61.98 73.7136 62.35 74.6236C62.39 74.7136 62.43 74.7936 62.47 74.8736L71.65 91.1636C72.18 92.1136 73.32 92.5036 74.3 92.1436C74.41 92.1036 74.52 92.0536 74.63 91.9936C75.68 91.4036 76.06 90.0636 75.46 89.0136L68.06 75.8736L82.4 81.1536C82.91 81.3436 83.44 81.3236 83.9 81.1536C84.48 80.9436 84.97 80.4836 85.21 79.8536C85.63 78.7236 85.05 77.4636 83.91 77.0436V77.0936Z" fill="white"/>
<path d="M113.57 57.8736L97.73 44.4836C97.55 44.0536 97.35 43.6336 97.12 43.2336L90.63 31.9836C90.87 31.9436 91.11 31.9136 91.35 31.9036L105.29 32.7736C106.49 32.8536 107.54 31.9336 107.61 30.7236C107.69 29.5136 106.77 28.4736 105.56 28.4036L91.5 27.5236C91.43 27.5236 91.36 27.5236 91.29 27.5236C90.27 27.5636 89.29 27.7436 88.36 28.0536L87.49 26.5436C89.14 24.5936 89.49 21.7536 88.14 19.4236C86.42 16.4536 82.62 15.4236 79.65 17.1436C76.68 18.8636 75.65 22.6636 77.37 25.6336C78.68 27.9136 81.22 29.0336 83.67 28.6736L84.6 30.2836C83.87 30.9636 83.23 31.7436 82.71 32.6236L75.19 45.3636C74.58 46.4036 74.92 47.7436 75.96 48.3636C76.31 48.5736 76.69 48.6636 77.07 48.6636C77.82 48.6636 78.55 48.2836 78.96 47.5836L86.48 34.8436C86.6 34.6336 86.74 34.4336 86.88 34.2436L93.32 45.4136C93.81 46.2636 94.09 47.2236 94.12 48.2036C94.12 48.2936 94.13 48.3936 94.15 48.4836L97.2 66.9336C97.38 68.0036 98.31 68.7636 99.36 68.7636C99.48 68.7636 99.6 68.7636 99.72 68.7336C100.91 68.5336 101.72 67.4136 101.52 66.2136L99.06 51.3336L110.73 61.2036C111.14 61.5536 111.64 61.7236 112.14 61.7236C112.76 61.7236 113.38 61.4636 113.81 60.9436C114.59 60.0236 114.48 58.6436 113.55 57.8536L113.57 57.8736Z" fill="white"/>
<path d="M148.03 49.9636L137.73 31.9636C137.71 31.5036 137.67 31.0336 137.59 30.5836L135.34 17.7936C135.58 17.8336 135.81 17.8936 136.05 17.9636L148.85 23.5536C149.95 24.0436 151.25 23.5336 151.73 22.4236C152.21 21.3136 151.71 20.0236 150.6 19.5436L137.69 13.9136C137.62 13.8836 137.56 13.8636 137.49 13.8336C136.52 13.5236 135.53 13.3536 134.55 13.3336L134.25 11.6136C136.46 10.3536 137.76 7.79362 137.3 5.14362C136.71 1.76362 133.48 -0.49638 130.1 0.0936204C126.72 0.68362 124.46 3.91362 125.05 7.29362C125.5 9.88362 127.5 11.8036 129.93 12.3036L130.25 14.1336C129.34 14.5236 128.47 15.0336 127.68 15.6836L116.25 25.0736C115.32 25.8436 115.18 27.2236 115.95 28.1536C116.21 28.4636 116.53 28.6936 116.89 28.8236C117.59 29.0836 118.41 28.9636 119.03 28.4536L130.46 19.0636C130.65 18.9136 130.84 18.7736 131.04 18.6436L133.27 31.3436C133.44 32.3036 133.37 33.3136 133.07 34.2436C133.04 34.3336 133.02 34.4236 133 34.5136L129.56 52.8936C129.36 53.9636 129.97 54.9936 130.96 55.3536C131.07 55.3936 131.19 55.4236 131.31 55.4536C132.5 55.6736 133.64 54.8936 133.87 53.7036L136.65 38.8836L144.24 52.1536C144.51 52.6236 144.92 52.9536 145.39 53.1236C145.97 53.3336 146.65 53.3036 147.23 52.9636C148.28 52.3636 148.64 51.0236 148.04 49.9736L148.03 49.9636Z" fill="white"/>
<path d="M183.11 54.3136L179.59 33.8736C179.73 33.4336 179.85 32.9836 179.93 32.5236L182.19 19.7336C182.4 19.8536 182.6 19.9836 182.8 20.1336L192.92 29.7636C193.79 30.6036 195.18 30.5636 196.02 29.6836C196.85 28.8036 196.82 27.4236 195.94 26.5836L185.74 16.8736C185.69 16.8236 185.63 16.7736 185.58 16.7336C184.78 16.1136 183.91 15.6136 182.99 15.2536L183.29 13.5436C185.8 13.1136 187.9 11.1636 188.37 8.50362C188.97 5.12362 186.71 1.89362 183.33 1.29362C179.95 0.69362 176.72 2.95362 176.12 6.33362C175.66 8.92362 176.88 11.4136 178.99 12.7136L178.67 14.5436C177.68 14.5936 176.69 14.7836 175.72 15.1236L161.77 20.0436C160.63 20.4436 160.03 21.6936 160.43 22.8336C160.57 23.2136 160.8 23.5336 161.09 23.7836C161.66 24.2636 162.47 24.4436 163.23 24.1736L177.18 19.2536C177.41 19.1736 177.64 19.1036 177.87 19.0536L175.62 31.7436C175.45 32.7036 175.04 33.6236 174.44 34.4036C174.38 34.4736 174.33 34.5536 174.28 34.6336L164.76 50.7236C164.21 51.6636 164.43 52.8336 165.23 53.5136C165.32 53.5936 165.42 53.6636 165.53 53.7236C166.57 54.3436 167.91 53.9936 168.53 52.9536L176.21 39.9736L178.81 55.0336C178.9 55.5636 179.18 56.0136 179.56 56.3336C180.04 56.7336 180.68 56.9336 181.34 56.8136C182.53 56.6036 183.33 55.4736 183.13 54.2836L183.11 54.3136Z" fill="white"/>
<path d="M214.59 70.3936L218.27 49.9836C218.55 49.6136 218.82 49.2336 219.05 48.8336L225.55 37.5836C225.7 37.7736 225.85 37.9636 225.98 38.1736L232.2 50.6836C232.73 51.7636 234.05 52.2036 235.14 51.6736C236.22 51.1336 236.66 49.8236 236.13 48.7436L229.86 36.1336C229.83 36.0736 229.79 36.0036 229.76 35.9436C229.22 35.0836 228.57 34.3236 227.83 33.6736L228.7 32.1636C231.21 32.6236 233.84 31.4936 235.19 29.1636C236.91 26.1936 235.89 22.3836 232.92 20.6736C229.95 18.9636 226.14 19.9736 224.43 22.9436C223.11 25.2136 223.41 27.9736 224.95 29.9136L224.02 31.5236C223.07 31.2336 222.08 31.0736 221.05 31.0636L206.26 30.9136C205.05 30.9036 204.06 31.8736 204.05 33.0836C204.05 33.4936 204.15 33.8736 204.34 34.2036C204.71 34.8536 205.41 35.2936 206.22 35.3036L221.01 35.4536C221.25 35.4536 221.49 35.4736 221.73 35.5036L215.28 46.6636C214.79 47.5136 214.09 48.2336 213.26 48.7536C213.18 48.8036 213.1 48.8536 213.03 48.9136L198.58 60.7836C197.74 61.4736 197.55 62.6536 198.07 63.5636C198.13 63.6636 198.2 63.7636 198.28 63.8636C199.05 64.7936 200.43 64.9336 201.36 64.1636L213.01 54.5936L210.3 69.6336C210.2 70.1636 210.3 70.6836 210.56 71.1136C210.87 71.6536 211.41 72.0536 212.07 72.1736C213.26 72.3836 214.4 71.5936 214.61 70.4036L214.59 70.3936Z" fill="white"/>
<path d="M238.67 96.2736L249.11 78.3536C249.5 78.1036 249.88 77.8336 250.24 77.5336L260.2 69.1936C260.28 69.4236 260.35 69.6536 260.41 69.8936L261.97 83.7736C262.1 84.9736 263.19 85.8436 264.39 85.7036C265.59 85.5636 266.46 84.4836 266.32 83.2836L264.74 69.2836C264.74 69.2136 264.72 69.1436 264.71 69.0736C264.5 68.0836 264.14 67.1436 263.68 66.2736L265.01 65.1536C267.21 66.4436 270.07 66.2836 272.14 64.5536C274.77 62.3436 275.12 58.4236 272.91 55.7936C270.7 53.1636 266.78 52.8136 264.15 55.0236C262.14 56.7136 261.47 59.4036 262.25 61.7536L260.82 62.9536C260.03 62.3536 259.15 61.8636 258.19 61.5036L244.34 56.3036C243.21 55.8836 241.95 56.4536 241.52 57.5836C241.38 57.9636 241.35 58.3536 241.41 58.7336C241.54 59.4736 242.05 60.1236 242.8 60.4036L256.65 65.6036C256.88 65.6936 257.1 65.7836 257.31 65.8936L247.43 74.1736C246.68 74.8036 245.78 75.2436 244.82 75.4436C244.73 75.4636 244.64 75.4836 244.55 75.5236L226.91 81.7336C225.88 82.0936 225.3 83.1436 225.48 84.1736C225.5 84.2936 225.53 84.4036 225.57 84.5236C225.97 85.6636 227.22 86.2636 228.36 85.8636L242.58 80.8536L234.89 94.0636C234.62 94.5336 234.54 95.0536 234.63 95.5436C234.74 96.1536 235.1 96.7236 235.68 97.0536C236.72 97.6636 238.06 97.3136 238.67 96.2636V96.2736Z" fill="white"/>
<path d="M252.44 128.824L268.38 115.554C268.83 115.454 269.28 115.334 269.72 115.174L281.93 110.734C281.93 110.974 281.92 111.214 281.89 111.464L278.61 125.044C278.32 126.214 279.05 127.404 280.22 127.684C281.4 127.964 282.58 127.244 282.86 126.074L286.17 112.384C286.19 112.314 286.2 112.244 286.21 112.174C286.35 111.164 286.34 110.164 286.19 109.194L287.83 108.604C289.46 110.564 292.2 111.404 294.73 110.484C297.96 109.314 299.62 105.744 298.45 102.514C297.28 99.2836 293.71 97.6236 290.48 98.7936C288.01 99.6936 286.46 101.994 286.39 104.464L284.64 105.104C284.1 104.274 283.44 103.504 282.66 102.844L271.42 93.2236C270.5 92.4336 269.12 92.5436 268.33 93.4636C268.07 93.7736 267.9 94.1336 267.84 94.5036C267.71 95.2436 267.96 96.0236 268.57 96.5536L279.81 106.174C279.99 106.334 280.17 106.504 280.33 106.674L268.21 111.074C267.29 111.404 266.29 111.514 265.32 111.374C265.23 111.364 265.13 111.354 265.04 111.354L246.34 111.154C245.25 111.144 244.34 111.924 244.16 112.964C244.14 113.084 244.13 113.204 244.13 113.324C244.12 114.534 245.09 115.524 246.3 115.534L261.38 115.694L249.63 125.474C249.22 125.814 248.96 126.284 248.88 126.774C248.77 127.384 248.92 128.044 249.35 128.554C250.12 129.484 251.5 129.614 252.43 128.834L252.44 128.824Z" fill="white"/>
<path d="M254.26 164.134L273.78 157.114C274.24 157.174 274.7 157.214 275.17 157.214H288.16C288.08 157.444 287.98 157.674 287.87 157.894L280.14 169.534C279.47 170.534 279.75 171.904 280.75 172.574C281.76 173.244 283.12 172.964 283.78 171.964L291.57 160.224C291.61 160.164 291.65 160.104 291.68 160.044C292.16 159.144 292.49 158.204 292.69 157.234H294.43C295.29 159.634 297.58 161.354 300.27 161.354C303.7 161.354 306.49 158.574 306.49 155.144C306.49 151.714 303.71 148.924 300.28 148.924C297.65 148.924 295.41 150.554 294.5 152.854H292.64C292.42 151.884 292.06 150.944 291.56 150.054L284.29 137.174C283.7 136.124 282.36 135.744 281.31 136.344C280.96 136.544 280.68 136.824 280.49 137.154C280.12 137.804 280.08 138.624 280.48 139.324L287.75 152.204C287.87 152.414 287.97 152.634 288.06 152.854H275.17C274.19 152.854 273.21 152.604 272.35 152.144C272.27 152.104 272.18 152.064 272.09 152.024L254.59 145.444C253.57 145.064 252.45 145.484 251.92 146.394C251.86 146.494 251.81 146.604 251.77 146.724C251.34 147.854 251.92 149.114 253.05 149.544L267.16 154.854L252.78 160.024C252.27 160.204 251.88 160.554 251.63 160.984C251.32 161.524 251.24 162.194 251.47 162.824C251.88 163.964 253.13 164.554 254.27 164.144L254.26 164.134Z" fill="white"/>
<path d="M243.88 197.924L264.62 198.004C265.03 198.224 265.45 198.414 265.89 198.574L278.09 203.024C277.93 203.204 277.77 203.384 277.59 203.554L266.35 211.854C265.38 212.564 265.17 213.944 265.89 214.914C266.61 215.884 267.98 216.094 268.95 215.374L280.28 207.014C280.34 206.974 280.39 206.924 280.45 206.874C281.2 206.194 281.84 205.414 282.36 204.584L284 205.184C283.99 207.734 285.55 210.134 288.08 211.054C291.31 212.234 294.87 210.564 296.05 207.344C297.23 204.124 295.56 200.554 292.34 199.374C289.87 198.474 287.21 199.244 285.56 201.094L283.81 200.454C283.93 199.474 283.92 198.464 283.75 197.454L281.33 182.864C281.13 181.674 280 180.864 278.81 181.064C278.41 181.134 278.05 181.304 277.76 181.544C277.19 182.024 276.87 182.794 277.01 183.584L279.43 198.174C279.47 198.414 279.49 198.654 279.5 198.894L267.39 194.474C266.47 194.134 265.64 193.574 264.98 192.844C264.92 192.774 264.85 192.704 264.78 192.644L250.58 180.474C249.75 179.764 248.56 179.784 247.75 180.454C247.66 180.534 247.57 180.614 247.49 180.704C246.7 181.624 246.81 183.004 247.73 183.794L259.18 193.604L243.9 193.544C243.36 193.544 242.87 193.734 242.49 194.054C242.01 194.454 241.71 195.054 241.71 195.724C241.71 196.934 242.68 197.914 243.89 197.924H243.88Z" fill="white"/>
<path d="M222.58 226.134L242.04 233.304C242.35 233.644 242.68 233.974 243.04 234.274L252.99 242.634C252.78 242.754 252.56 242.864 252.34 242.964L238.94 246.914C237.78 247.244 237.12 248.474 237.46 249.634C237.8 250.794 239.02 251.454 240.18 251.114L253.69 247.134C253.76 247.114 253.83 247.094 253.89 247.064C254.83 246.684 255.69 246.174 256.47 245.564L257.8 246.684C256.92 249.074 257.56 251.864 259.63 253.604C262.26 255.814 266.18 255.474 268.39 252.844C270.6 250.214 270.26 246.294 267.63 244.084C265.62 242.394 262.85 242.204 260.67 243.384L259.24 242.184C259.69 241.304 260.02 240.344 260.21 239.344L262.92 224.804C263.14 223.614 262.36 222.474 261.17 222.254C260.77 222.184 260.38 222.214 260.02 222.344C259.32 222.604 258.76 223.214 258.61 224.004L255.9 238.544C255.86 238.784 255.8 239.014 255.72 239.244L245.85 230.954C245.1 230.324 244.51 229.514 244.14 228.604C244.1 228.514 244.06 228.434 244.02 228.354L234.84 212.064C234.31 211.114 233.17 210.724 232.19 211.084C232.08 211.124 231.97 211.174 231.86 211.234C230.81 211.824 230.43 213.164 231.03 214.214L238.43 227.354L224.09 222.074C223.58 221.884 223.05 221.904 222.59 222.074C222.01 222.284 221.52 222.744 221.28 223.374C220.86 224.504 221.44 225.764 222.58 226.184V226.134Z" fill="white"/>
<path d="M192.91 245.354L208.75 258.744C208.93 259.174 209.13 259.594 209.36 259.994L215.85 271.244C215.61 271.284 215.37 271.314 215.13 271.324L201.19 270.454C199.99 270.374 198.94 271.294 198.87 272.504C198.79 273.714 199.71 274.754 200.92 274.824L214.98 275.704C215.05 275.704 215.12 275.704 215.19 275.704C216.21 275.664 217.19 275.484 218.12 275.174L218.99 276.684C217.34 278.634 216.99 281.474 218.34 283.804C220.06 286.774 223.86 287.804 226.83 286.084C229.8 284.364 230.83 280.564 229.11 277.594C227.8 275.314 225.26 274.194 222.81 274.554L221.88 272.944C222.61 272.264 223.25 271.484 223.77 270.604L231.29 257.864C231.9 256.824 231.56 255.484 230.52 254.864C230.17 254.654 229.79 254.564 229.41 254.564C228.66 254.564 227.93 254.944 227.52 255.644L220 268.384C219.88 268.594 219.74 268.794 219.6 268.984L213.16 257.814C212.67 256.964 212.39 256.004 212.36 255.024C212.36 254.934 212.35 254.834 212.33 254.744L209.28 236.294C209.1 235.224 208.17 234.464 207.12 234.464C207 234.464 206.88 234.464 206.76 234.494C205.57 234.694 204.76 235.814 204.96 237.014L207.42 251.894L195.75 242.024C195.34 241.674 194.84 241.504 194.34 241.504C193.72 241.504 193.1 241.764 192.67 242.284C191.89 243.204 192 244.584 192.93 245.374L192.91 245.354Z" fill="white"/>
<path d="M158.46 253.264L168.76 271.264C168.78 271.724 168.82 272.194 168.9 272.644L171.15 285.434C170.91 285.394 170.68 285.334 170.44 285.264L157.64 279.674C156.54 279.184 155.24 279.694 154.76 280.804C154.28 281.914 154.78 283.204 155.89 283.684L168.8 289.314C168.87 289.344 168.93 289.364 169 289.394C169.97 289.704 170.96 289.874 171.94 289.894L172.24 291.614C170.03 292.874 168.73 295.434 169.19 298.084C169.78 301.464 173.01 303.724 176.39 303.134C179.77 302.544 182.03 299.314 181.44 295.934C180.99 293.344 178.99 291.424 176.56 290.924L176.24 289.094C177.15 288.704 178.02 288.194 178.81 287.544L190.24 278.154C191.17 277.384 191.31 276.004 190.54 275.074C190.28 274.764 189.96 274.534 189.6 274.404C188.9 274.144 188.08 274.264 187.46 274.774L176.03 284.164C175.84 284.314 175.65 284.454 175.45 284.584L173.22 271.884C173.05 270.924 173.12 269.914 173.42 268.984C173.45 268.894 173.47 268.804 173.49 268.714L176.93 250.334C177.13 249.264 176.52 248.234 175.53 247.874C175.42 247.834 175.3 247.804 175.18 247.774C173.99 247.554 172.85 248.334 172.62 249.524L169.84 264.344L162.25 251.074C161.98 250.604 161.57 250.274 161.1 250.104C160.52 249.894 159.84 249.924 159.26 250.264C158.21 250.864 157.85 252.204 158.45 253.254L158.46 253.264Z" fill="white"/>
<path d="M123.38 248.924L126.9 269.364C126.76 269.804 126.64 270.254 126.56 270.714L124.3 283.504C124.09 283.384 123.89 283.254 123.69 283.104L113.57 273.474C112.7 272.634 111.31 272.674 110.47 273.554C109.64 274.434 109.67 275.814 110.55 276.654L120.75 286.364C120.8 286.414 120.86 286.464 120.91 286.504C121.71 287.124 122.58 287.624 123.5 287.984L123.2 289.694C120.69 290.124 118.59 292.074 118.12 294.734C117.52 298.114 119.78 301.344 123.16 301.944C126.54 302.544 129.77 300.284 130.37 296.904C130.83 294.314 129.61 291.824 127.5 290.524L127.82 288.694C128.81 288.644 129.8 288.454 130.77 288.114L144.72 283.194C145.86 282.794 146.46 281.544 146.06 280.404C145.92 280.024 145.69 279.704 145.4 279.454C144.83 278.974 144.02 278.794 143.26 279.064L129.31 283.984C129.08 284.064 128.85 284.134 128.62 284.184L130.87 271.494C131.04 270.534 131.45 269.614 132.05 268.834C132.11 268.764 132.16 268.684 132.21 268.604L141.73 252.514C142.28 251.574 142.06 250.404 141.26 249.724C141.17 249.644 141.07 249.574 140.96 249.514C139.92 248.894 138.58 249.244 137.96 250.284L130.28 263.264L127.68 248.204C127.59 247.674 127.31 247.224 126.93 246.904C126.45 246.504 125.81 246.304 125.15 246.424C123.96 246.634 123.16 247.764 123.36 248.954L123.38 248.924Z" fill="white"/>
<path d="M153.24 241.774C203.034 241.774 243.4 201.408 243.4 151.614C243.4 101.82 203.034 61.4536 153.24 61.4536C103.446 61.4536 63.08 101.82 63.08 151.614C63.08 201.408 103.446 241.774 153.24 241.774Z" fill="white"/>
<path d="M147.17 195.994L135.4 180.794C134.91 180.164 134.11 179.844 133.32 179.974L116.84 182.624L114.8 171.374L127.75 175.484C127.97 175.554 128.19 175.584 128.41 175.584C129.34 175.584 130.2 174.984 130.5 174.054C130.87 172.904 130.23 171.674 129.08 171.304L113.92 166.494L113.72 165.394C115.65 164.194 116.75 161.894 116.32 159.524C115.76 156.424 112.78 154.364 109.68 154.924C106.58 155.484 104.52 158.464 105.08 161.564C105.5 163.874 107.25 165.604 109.4 166.104L112.93 185.504C113.14 186.674 114.25 187.464 115.43 187.274L132.74 184.484L143.72 198.654C144.15 199.214 144.8 199.504 145.45 199.504C145.92 199.504 146.39 199.354 146.79 199.044C147.75 198.304 147.92 196.924 147.18 195.974L147.17 195.994Z" fill="#040184"/>
<path d="M130.99 187.754C129.78 187.754 128.8 188.734 128.8 189.944C128.8 197.714 122.48 204.044 114.7 204.044C106.92 204.044 100.6 197.724 100.6 189.944C100.6 184.804 103.4 180.074 107.9 177.594C108.96 177.014 109.34 175.674 108.76 174.624C108.18 173.564 106.84 173.184 105.79 173.764C99.89 177.014 96.23 183.224 96.23 189.954C96.23 200.144 104.52 208.424 114.7 208.424C124.88 208.424 133.17 200.134 133.17 189.954C133.17 188.744 132.19 187.764 130.98 187.764L130.99 187.754Z" fill="#040184"/>
<path d="M152.11 115.604C145.85 105.144 134.4 98.6336 122.22 98.6336C121.97 98.6336 121.71 98.6536 121.46 98.6636L120.35 92.1636C120.15 90.9736 119.01 90.1736 117.82 90.3736C116.63 90.5736 115.83 91.7136 116.03 92.9036L117.08 99.0336C115.53 99.2736 114 99.6136 112.51 100.044C112.37 100.074 112.24 100.114 112.12 100.164C103.96 102.664 96.81 108.104 92.33 115.594C91.92 116.284 91.92 117.154 92.33 117.844C94.79 121.954 98.06 125.444 101.85 128.174C102.03 128.344 102.23 128.494 102.45 128.594C108.19 132.554 115.08 134.804 122.22 134.804C122.55 134.804 122.87 134.784 123.2 134.774L124.45 142.094C124.63 143.164 125.56 143.914 126.61 143.914C126.73 143.914 126.86 143.904 126.98 143.884C128.17 143.684 128.97 142.544 128.77 141.354L127.57 134.374C137.67 132.774 146.77 126.754 152.1 117.844C152.51 117.154 152.51 116.284 152.1 115.594L152.11 115.604ZM122.22 103.014C129.77 103.024 135.92 109.174 135.92 116.724C135.92 122.684 132.09 127.754 126.76 129.634L126.05 125.474C129.42 123.994 131.77 120.634 131.77 116.724C131.77 111.684 127.87 107.564 122.92 107.204L122.2 103.014C122.2 103.014 122.21 103.014 122.22 103.014ZM118.6 107.884C117.8 108.214 117.05 108.654 116.38 109.174L115.46 103.794C116.24 103.614 117.03 103.464 117.82 103.344L118.6 107.874V107.884ZM112.84 128.934L109 106.084C109.73 105.724 110.48 105.394 111.24 105.094L112.88 114.724C112.74 115.374 112.67 116.034 112.67 116.724C112.67 118.544 113.19 120.244 114.07 121.684L115.43 129.634C114.56 129.434 113.69 129.204 112.84 128.924V128.934ZM105.37 125.304L102.71 110.134C103.43 109.534 104.17 108.964 104.94 108.434L108.05 126.904C107.13 126.414 106.24 125.884 105.37 125.304ZM96.79 116.734C97.45 115.744 98.16 114.794 98.92 113.894L100.16 120.954C98.92 119.654 97.79 118.254 96.79 116.734ZM119.98 130.354L119.2 125.794C120 126.064 120.85 126.214 121.73 126.264L122.44 130.424C122.36 130.424 122.28 130.434 122.21 130.434C121.46 130.444 120.72 130.404 119.98 130.354ZM137.56 126.244C139.28 123.474 140.29 120.224 140.29 116.734C140.29 113.244 139.28 109.994 137.56 107.224C141.55 109.564 145.03 112.794 147.64 116.734C145.04 120.684 141.56 123.904 137.56 126.244Z" fill="#040184"/>
<path d="M206.25 87.4536C205.33 86.6636 203.95 86.7736 203.16 87.6936L196.71 95.2236C196.28 94.9436 195.83 94.6636 195.36 94.4236C188.75 90.9936 179.59 92.0936 173.07 97.1136C166.17 102.414 163.47 111.054 165.65 120.814C165.91 121.994 167.09 122.734 168.26 122.474C169.44 122.214 170.18 121.044 169.92 119.864C167.47 108.874 172.51 103.074 175.74 100.594C180.87 96.6436 188.28 95.6836 193.34 98.3236C195.98 99.6936 199.08 102.624 198.81 108.754C198.35 119.314 193.55 121.754 189.69 123.714C187.03 125.064 183.72 126.744 184.46 131.044C185.27 135.784 183.05 138.824 180.45 139.374C177.91 139.914 175.71 138.044 174.86 134.614C174.57 133.444 173.38 132.724 172.21 133.024C171.04 133.314 170.32 134.504 170.62 135.684C172.06 141.454 176.04 143.844 179.68 143.844C180.25 143.844 180.82 143.784 181.36 143.674C186.02 142.694 190.06 137.794 188.79 130.324C188.64 129.434 188.72 129.134 191.69 127.624C196.05 125.414 202.64 122.074 203.21 108.954C203.4 104.664 202.27 100.984 200 98.1736L206.52 90.5636C207.31 89.6436 207.2 88.2636 206.28 87.4736L206.25 87.4536Z" fill="#040184"/>
<path d="M188.15 107.944C187.27 107.124 185.88 107.164 185.06 108.054L156.04 139.124C155.21 140.004 155.26 141.394 156.15 142.214C156.57 142.604 157.11 142.804 157.64 142.804C158.23 142.804 158.81 142.574 159.24 142.104L188.26 111.034C189.09 110.154 189.04 108.764 188.15 107.944Z" fill="#040184"/>
<path d="M194.46 112.024C194.46 112.024 194.52 112.024 194.56 112.024C195.73 112.024 196.69 111.104 196.75 109.934C196.99 104.464 194.87 101.744 193.05 100.424C189.75 98.0336 185.11 98.4836 182.13 99.5936C181 100.014 180.42 101.284 180.85 102.414C181.27 103.544 182.54 104.124 183.67 103.694C185.71 102.924 188.72 102.684 190.48 103.964C191.86 104.964 192.5 106.904 192.37 109.734C192.32 110.944 193.25 111.964 194.46 112.014V112.024Z" fill="#040184"/>
<path d="M179.7 176.874L182.18 176.794C183.39 176.754 184.34 175.744 184.3 174.534C184.26 173.324 183.27 172.394 182.04 172.414L179.56 172.494C178.35 172.534 177.4 173.544 177.44 174.754C177.48 175.934 178.45 176.874 179.63 176.874C179.65 176.874 179.68 176.874 179.7 176.874Z" fill="#040184"/>
<path d="M200.46 172.414C200.46 172.414 200.41 172.414 200.39 172.414L197.91 172.494C196.7 172.534 195.75 173.544 195.79 174.754C195.83 175.934 196.8 176.874 197.98 176.874C198 176.874 198.03 176.874 198.05 176.874L200.53 176.794C201.74 176.754 202.69 175.744 202.65 174.534C202.61 173.354 201.64 172.414 200.46 172.414Z" fill="#040184"/>
<path d="M212.48 173.494C212.75 163.724 208.04 159.574 204.01 157.814C197.46 154.954 188.77 156.884 185.35 159.214C185.14 159.084 184.93 158.954 184.71 158.834C179.27 155.824 171.72 156.424 165.93 160.324C160.54 163.954 157.89 169.614 158.64 175.834C158.79 177.034 159.88 177.894 161.08 177.744C162.28 177.594 163.14 176.504 162.99 175.304C162.24 169.094 166.04 165.524 168.38 163.944C172.77 160.984 178.62 160.454 182.59 162.654C183.05 162.904 183.47 163.194 183.87 163.514C184.08 163.864 184.38 164.124 184.72 164.304C186.8 166.454 187.83 169.654 187.69 173.734C187.64 175.134 188.44 176.644 189.73 178.974C190.37 180.134 191.45 182.074 191.48 182.704C191.48 182.774 191.48 182.834 191.47 182.884C191.38 182.884 191.29 182.884 191.22 182.874C190.64 182.844 189.85 182.794 189.09 183.264C187.81 184.064 187.78 185.494 187.75 187.304C187.74 188.024 187.71 189.494 187.52 189.994C186.99 190.454 185.7 190.544 185.14 190.584C184.56 190.624 182.78 190.754 182.5 192.534C182.37 193.344 182.57 194.474 184.3 195.184C184.71 195.354 185.13 195.504 185.55 195.654C187.53 196.364 187.9 196.634 188.05 197.484C188.46 199.874 188.08 201.474 186.94 202.244C184.13 204.124 175.8 202.564 165.3 195.974C164.28 195.334 162.92 195.644 162.28 196.664C161.64 197.684 161.95 199.044 162.97 199.684C167.13 202.294 171.88 204.684 176.37 206.084C176.52 206.164 176.68 206.234 176.85 206.274C180.17 207.154 185.92 208.674 191.7 208.674C199.02 208.674 206.39 206.234 208.98 196.974C209.24 196.034 209.58 194.494 209.93 192.864C210.36 190.904 211.05 187.704 211.42 186.754C213.13 184.954 214.76 179.984 214.89 177.344C215.01 174.884 213.24 173.914 212.46 173.494H212.48ZM208.37 183.644C207.38 184.394 206.97 185.964 205.67 191.934C205.33 193.504 205.01 194.974 204.78 195.794C202.91 202.504 197.58 204.474 191.08 204.294C192.23 202.764 193.01 200.404 192.39 196.744C192.36 196.564 192.3 196.414 192.26 196.244C197.55 195.574 199.72 193.554 199.97 193.314L198.42 191.764L196.92 190.174C196.92 190.174 195.39 191.494 191.45 191.934C192.07 190.624 192.12 188.924 192.15 187.384C192.15 187.334 192.15 187.294 192.15 187.244C192.88 187.184 193.74 186.954 194.5 186.274C195.35 185.504 195.81 184.374 195.88 182.894C195.96 181.134 194.8 179.054 193.58 176.854C193.02 175.854 192.19 174.354 192.09 173.814C192.23 169.124 191.07 165.184 188.78 162.264C191.31 161.124 197.22 159.744 202.07 161.734C206.35 163.504 208.38 167.574 208.1 173.834C208 176.054 209.69 176.954 210.41 177.344C210.45 177.364 210.49 177.384 210.54 177.414C210.33 179.714 208.93 182.864 208.39 183.644H208.37Z" fill="#040184"/>
</svg>
