<svg width="707" height="304" viewBox="0 0 707 304" fill="none" xmlns="http://www.w3.org/2000/svg">
<path d="M91.9098 233.47L88.2298 253.88C87.9498 254.25 87.6798 254.63 87.4498 255.03L80.9498 266.28C80.7998 266.09 80.6498 265.9 80.5198 265.69L74.2998 253.18C73.7698 252.1 72.4498 251.66 71.3598 252.19C70.2798 252.73 69.8398 254.04 70.3698 255.12L76.6398 267.73C76.6698 267.79 76.7098 267.86 76.7398 267.92C77.2798 268.78 77.9298 269.54 78.6698 270.19L77.7998 271.7C75.2898 271.24 72.6598 272.37 71.3098 274.7C69.5898 277.67 70.6098 281.48 73.5798 283.19C76.5498 284.9 80.3598 283.89 82.0698 280.92C83.3898 278.65 83.0898 275.89 81.5498 273.95L82.4798 272.34C83.4298 272.63 84.4198 272.79 85.4498 272.8L100.24 272.95C101.45 272.96 102.44 271.99 102.45 270.78C102.45 270.37 102.35 269.99 102.16 269.66C101.79 269.01 101.09 268.57 100.28 268.56L85.4898 268.41C85.2498 268.41 85.0098 268.39 84.7698 268.36L91.2198 257.2C91.7098 256.35 92.4098 255.63 93.2398 255.11C93.3198 255.06 93.3998 255.01 93.4698 254.95L107.92 243.08C108.76 242.39 108.95 241.21 108.43 240.3C108.37 240.2 108.3 240.1 108.22 240C107.45 239.07 106.07 238.93 105.14 239.7L93.4898 249.27L96.1998 234.23C96.2998 233.7 96.1998 233.18 95.9398 232.75C95.6298 232.21 95.0898 231.81 94.4298 231.69C93.2398 231.48 92.0998 232.27 91.8898 233.46L91.9098 233.47Z" fill="#040184"/>
<path d="M67.8298 207.59L57.3898 225.51C56.9998 225.76 56.6198 226.03 56.2598 226.33L46.2998 234.67C46.2198 234.44 46.1498 234.21 46.0898 233.97L44.5298 220.09C44.3998 218.89 43.3098 218.02 42.1098 218.16C40.9098 218.3 40.0398 219.38 40.1798 220.58L41.7598 234.58C41.7598 234.65 41.7798 234.72 41.7898 234.79C41.9998 235.78 42.3598 236.72 42.8198 237.59L41.4898 238.71C39.2898 237.42 36.4298 237.58 34.3598 239.31C31.7298 241.52 31.3798 245.44 33.5898 248.07C35.7998 250.7 39.7198 251.05 42.3498 248.84C44.3598 247.15 45.0298 244.46 44.2498 242.11L45.6798 240.91C46.4698 241.51 47.3498 242 48.3098 242.36L62.1598 247.56C63.2898 247.98 64.5498 247.41 64.9798 246.28C65.1198 245.9 65.1498 245.51 65.0898 245.13C64.9598 244.39 64.4498 243.74 63.6998 243.46L49.8498 238.26C49.6198 238.17 49.3998 238.08 49.1898 237.97L59.0698 229.69C59.8198 229.06 60.7198 228.62 61.6798 228.42C61.7698 228.4 61.8598 228.38 61.9498 228.34L79.5898 222.13C80.6198 221.77 81.1998 220.72 81.0198 219.69C80.9998 219.57 80.9698 219.46 80.9298 219.34C80.5298 218.2 79.2798 217.6 78.1398 218L63.9198 223.01L71.6098 209.8C71.8798 209.33 71.9598 208.81 71.8698 208.32C71.7598 207.71 71.3998 207.14 70.8198 206.81C69.7798 206.2 68.4398 206.55 67.8298 207.6V207.59Z" fill="#040184"/>
<path d="M54.0498 175.04L38.1098 188.31C37.6598 188.41 37.2098 188.53 36.7698 188.69L24.5598 193.13C24.5598 192.89 24.5698 192.65 24.5998 192.4L27.8798 178.82C28.1698 177.65 27.4398 176.46 26.2698 176.18C25.0898 175.9 23.9098 176.62 23.6298 177.79L20.3198 191.48C20.2998 191.55 20.2898 191.62 20.2798 191.69C20.1398 192.7 20.1498 193.7 20.2998 194.67L18.6598 195.26C17.0298 193.3 14.2898 192.46 11.7598 193.38C8.52977 194.55 6.86977 198.12 8.03977 201.35C9.20977 204.58 12.7798 206.24 16.0098 205.07C18.4798 204.17 20.0298 201.87 20.0998 199.4L21.8498 198.76C22.3898 199.59 23.0498 200.36 23.8298 201.02L35.0698 210.64C35.9898 211.43 37.3698 211.32 38.1598 210.4C38.4198 210.09 38.5898 209.73 38.6498 209.36C38.7798 208.62 38.5298 207.84 37.9198 207.31L26.6798 197.69C26.4998 197.53 26.3198 197.36 26.1598 197.19L38.2798 192.79C39.1998 192.46 40.1998 192.35 41.1698 192.49C41.2598 192.5 41.3598 192.51 41.4498 192.51L60.1498 192.71C61.2398 192.72 62.1498 191.94 62.3298 190.9C62.3498 190.78 62.3598 190.66 62.3598 190.54C62.3698 189.33 61.3998 188.34 60.1898 188.33L45.1098 188.17L56.8598 178.39C57.2698 178.05 57.5298 177.58 57.6098 177.09C57.7198 176.48 57.5698 175.82 57.1398 175.31C56.3698 174.38 54.9898 174.25 54.0598 175.03L54.0498 175.04Z" fill="#040184"/>
<path d="M52.2398 139.74L32.7198 146.76C32.2598 146.7 31.7998 146.66 31.3298 146.66H18.3398C18.4198 146.43 18.5198 146.2 18.6298 145.98L26.3598 134.34C27.0298 133.34 26.7498 131.97 25.7498 131.3C24.7398 130.63 23.3798 130.91 22.7198 131.91L14.9298 143.65C14.8898 143.71 14.8498 143.77 14.8198 143.83C14.3398 144.73 14.0098 145.67 13.8098 146.64H12.0698C11.2098 144.24 8.91977 142.52 6.22977 142.52C2.79977 142.52 0.00976562 145.3 0.00976562 148.73C0.00976562 152.16 2.78977 154.95 6.21977 154.95C8.84977 154.95 11.0898 153.32 11.9998 151.02H13.8598C14.0798 151.99 14.4398 152.93 14.9398 153.82L22.2098 166.7C22.7998 167.75 24.1398 168.13 25.1898 167.53C25.5398 167.33 25.8198 167.05 26.0098 166.72C26.3798 166.07 26.4198 165.25 26.0198 164.55L18.7498 151.67C18.6298 151.46 18.5298 151.24 18.4398 151.02H31.3298C32.3098 151.02 33.2898 151.27 34.1498 151.73C34.2298 151.77 34.3198 151.81 34.4098 151.85L51.9098 158.43C52.9298 158.81 54.0498 158.39 54.5798 157.48C54.6398 157.38 54.6898 157.27 54.7298 157.15C55.1598 156.02 54.5798 154.76 53.4498 154.33L39.3398 149.02L53.7198 143.85C54.2298 143.67 54.6198 143.32 54.8698 142.89C55.1798 142.35 55.2598 141.68 55.0298 141.05C54.6198 139.91 53.3698 139.32 52.2298 139.73L52.2398 139.74Z" fill="#040184"/>
<path d="M62.6098 105.94L41.8698 105.86C41.4598 105.64 41.0398 105.45 40.5998 105.29L28.3998 100.84C28.5598 100.66 28.7198 100.48 28.8998 100.31L40.1398 92.0103C41.1098 91.3003 41.3198 89.9203 40.5998 88.9503C39.8798 87.9803 38.5098 87.7703 37.5398 88.4903L26.2098 96.8503C26.1498 96.8903 26.0998 96.9403 26.0398 96.9903C25.2898 97.6703 24.6498 98.4503 24.1298 99.2803L22.4898 98.6803C22.4998 96.1303 20.9398 93.7303 18.4098 92.8103C15.1798 91.6303 11.6198 93.3003 10.4398 96.5203C9.25977 99.7403 10.9298 103.31 14.1498 104.49C16.6198 105.39 19.2798 104.62 20.9298 102.77L22.6798 103.41C22.5598 104.39 22.5698 105.4 22.7398 106.41L25.1598 121C25.3598 122.19 26.4898 123 27.6798 122.8C28.0798 122.73 28.4398 122.56 28.7298 122.32C29.2998 121.84 29.6198 121.07 29.4798 120.28L27.0598 105.69C27.0198 105.45 26.9998 105.21 26.9898 104.97L39.0998 109.39C40.0198 109.73 40.8498 110.29 41.5098 111.02C41.5698 111.09 41.6398 111.16 41.7098 111.22L55.9098 123.39C56.7398 124.1 57.9298 124.08 58.7398 123.41C58.8298 123.33 58.9198 123.25 58.9998 123.16C59.7898 122.24 59.6798 120.86 58.7598 120.07L47.3098 110.26L62.5898 110.32C63.1298 110.32 63.6198 110.13 63.9998 109.81C64.4798 109.41 64.7798 108.81 64.7798 108.14C64.7798 106.93 63.8098 105.95 62.5998 105.94H62.6098Z" fill="#040184"/>
<path d="M83.9198 77.7303L64.4598 70.5603C64.1498 70.2203 63.8198 69.8903 63.4598 69.5903L53.5098 61.2303C53.7198 61.1103 53.9398 61.0003 54.1598 60.9003L67.5598 56.9503C68.7198 56.6203 69.3798 55.3903 69.0398 54.2303C68.6998 53.0703 67.4798 52.4103 66.3198 52.7503L52.8098 56.7303C52.7398 56.7503 52.6698 56.7703 52.6098 56.8003C51.6698 57.1803 50.8098 57.6903 50.0298 58.3003L48.6998 57.1803C49.5798 54.7903 48.9398 52.0003 46.8698 50.2603C44.2398 48.0503 40.3198 48.3903 38.1098 51.0203C35.8998 53.6503 36.2398 57.5703 38.8698 59.7803C40.8798 61.4703 43.6498 61.6603 45.8298 60.4803L47.2598 61.6803C46.8098 62.5603 46.4798 63.5203 46.2898 64.5203L43.5798 79.0603C43.3598 80.2503 44.1398 81.3903 45.3298 81.6103C45.7298 81.6803 46.1198 81.6503 46.4798 81.5203C47.1798 81.2603 47.7398 80.6503 47.8898 79.8603L50.5998 65.3203C50.6398 65.0803 50.6998 64.8503 50.7798 64.6203L60.6498 72.9103C61.3998 73.5403 61.9898 74.3503 62.3598 75.2603C62.3998 75.3503 62.4398 75.4303 62.4798 75.5103L71.6598 91.8003C72.1898 92.7503 73.3298 93.1403 74.3098 92.7803C74.4198 92.7403 74.5298 92.6903 74.6398 92.6303C75.6898 92.0403 76.0698 90.7003 75.4698 89.6503L68.0698 76.5103L82.4098 81.7903C82.9198 81.9803 83.4498 81.9603 83.9098 81.7903C84.4898 81.5803 84.9798 81.1203 85.2198 80.4903C85.6398 79.3603 85.0598 78.1003 83.9198 77.6803V77.7303Z" fill="#040184"/>
<path d="M113.58 58.5103L97.7398 45.1203C97.5598 44.6903 97.3598 44.2703 97.1298 43.8703L90.6398 32.6203C90.8798 32.5803 91.1198 32.5503 91.3598 32.5403L105.3 33.4103C106.5 33.4903 107.55 32.5703 107.62 31.3603C107.7 30.1503 106.78 29.1103 105.57 29.0403L91.5098 28.1603C91.4398 28.1603 91.3698 28.1603 91.2998 28.1603C90.2798 28.2003 89.2998 28.3803 88.3698 28.6903L87.4998 27.1803C89.1498 25.2303 89.4998 22.3903 88.1498 20.0603C86.4298 17.0903 82.6298 16.0603 79.6598 17.7803C76.6898 19.5003 75.6598 23.3003 77.3798 26.2703C78.6898 28.5503 81.2298 29.6703 83.6798 29.3103L84.6098 30.9203C83.8798 31.6003 83.2398 32.3803 82.7198 33.2603L75.1998 46.0003C74.5898 47.0403 74.9298 48.3803 75.9698 49.0003C76.3198 49.2103 76.6998 49.3003 77.0798 49.3003C77.8298 49.3003 78.5598 48.9203 78.9698 48.2203L86.4898 35.4803C86.6098 35.2703 86.7498 35.0703 86.8898 34.8803L93.3298 46.0503C93.8198 46.9003 94.0998 47.8603 94.1298 48.8403C94.1298 48.9303 94.1398 49.0303 94.1598 49.1203L97.2098 67.5703C97.3898 68.6403 98.3198 69.4003 99.3698 69.4003C99.4898 69.4003 99.6098 69.4003 99.7298 69.3703C100.92 69.1703 101.73 68.0503 101.53 66.8503L99.0698 51.9703L110.74 61.8403C111.15 62.1903 111.65 62.3603 112.15 62.3603C112.77 62.3603 113.39 62.1003 113.82 61.5803C114.6 60.6603 114.49 59.2803 113.56 58.4903L113.58 58.5103Z" fill="#040184"/>
<path d="M148.04 50.6003L137.74 32.6003C137.72 32.1403 137.68 31.6703 137.6 31.2203L135.35 18.4303C135.59 18.4703 135.82 18.5303 136.06 18.6003L148.86 24.1903C149.96 24.6803 151.26 24.1703 151.74 23.0603C152.22 21.9503 151.72 20.6603 150.61 20.1803L137.7 14.5503C137.63 14.5203 137.57 14.5003 137.5 14.4703C136.53 14.1603 135.54 13.9903 134.56 13.9703L134.26 12.2503C136.47 10.9903 137.77 8.43034 137.31 5.78034C136.72 2.40034 133.49 0.140339 130.11 0.730339C126.73 1.32034 124.47 4.55034 125.06 7.93034C125.51 10.5203 127.51 12.4403 129.94 12.9403L130.26 14.7703C129.35 15.1603 128.48 15.6703 127.69 16.3203L116.26 25.7103C115.33 26.4803 115.19 27.8603 115.96 28.7903C116.22 29.1003 116.54 29.3303 116.9 29.4603C117.6 29.7203 118.42 29.6003 119.04 29.0903L130.47 19.7003C130.66 19.5503 130.85 19.4103 131.05 19.2803L133.28 31.9803C133.45 32.9403 133.38 33.9503 133.08 34.8803C133.05 34.9703 133.03 35.0603 133.01 35.1503L129.57 53.5303C129.37 54.6003 129.98 55.6303 130.97 55.9903C131.08 56.0303 131.2 56.0603 131.32 56.0903C132.51 56.3103 133.65 55.5303 133.88 54.3403L136.66 39.5203L144.25 52.7903C144.52 53.2603 144.93 53.5903 145.4 53.7603C145.98 53.9703 146.66 53.9403 147.24 53.6003C148.29 53.0003 148.65 51.6603 148.05 50.6103L148.04 50.6003Z" fill="#040184"/>
<path d="M183.12 54.9503L179.6 34.5103C179.74 34.0703 179.86 33.6203 179.94 33.1603L182.2 20.3703C182.41 20.4903 182.61 20.6203 182.81 20.7703L192.93 30.4003C193.8 31.2403 195.19 31.2003 196.03 30.3203C196.86 29.4403 196.83 28.0603 195.95 27.2203L185.75 17.5103C185.7 17.4603 185.64 17.4103 185.59 17.3703C184.79 16.7503 183.92 16.2503 183 15.8903L183.3 14.1803C185.81 13.7503 187.91 11.8003 188.38 9.14034C188.98 5.76034 186.72 2.53034 183.34 1.93034C179.96 1.33034 176.73 3.59034 176.13 6.97034C175.67 9.56034 176.89 12.0503 179 13.3503L178.68 15.1803C177.69 15.2303 176.7 15.4203 175.73 15.7603L161.78 20.6803C160.64 21.0803 160.04 22.3303 160.44 23.4703C160.58 23.8503 160.81 24.1703 161.1 24.4203C161.67 24.9003 162.48 25.0803 163.24 24.8103L177.19 19.8903C177.42 19.8103 177.65 19.7403 177.88 19.6903L175.63 32.3803C175.46 33.3403 175.05 34.2603 174.45 35.0403C174.39 35.1103 174.34 35.1903 174.29 35.2703L164.77 51.3603C164.22 52.3003 164.44 53.4703 165.24 54.1503C165.33 54.2303 165.43 54.3003 165.54 54.3603C166.58 54.9803 167.92 54.6303 168.54 53.5903L176.22 40.6103L178.82 55.6703C178.91 56.2003 179.19 56.6503 179.57 56.9703C180.05 57.3703 180.69 57.5703 181.35 57.4503C182.54 57.2403 183.34 56.1103 183.14 54.9203L183.12 54.9503Z" fill="#040184"/>
<path d="M214.6 71.0303L218.28 50.6203C218.56 50.2503 218.83 49.8703 219.06 49.4703L225.56 38.2203C225.71 38.4103 225.86 38.6003 225.99 38.8103L232.21 51.3203C232.74 52.4003 234.06 52.8403 235.15 52.3103C236.23 51.7703 236.67 50.4603 236.14 49.3803L229.87 36.7703C229.84 36.7103 229.8 36.6403 229.77 36.5803C229.23 35.7203 228.58 34.9603 227.84 34.3103L228.71 32.8003C231.22 33.2603 233.85 32.1303 235.2 29.8003C236.92 26.8303 235.9 23.0203 232.93 21.3103C229.96 19.6003 226.15 20.6103 224.44 23.5803C223.12 25.8503 223.42 28.6103 224.96 30.5503L224.03 32.1603C223.08 31.8703 222.09 31.7103 221.06 31.7003L206.27 31.5503C205.06 31.5403 204.07 32.5103 204.06 33.7203C204.06 34.1303 204.16 34.5103 204.35 34.8403C204.72 35.4903 205.42 35.9303 206.23 35.9403L221.02 36.0903C221.26 36.0903 221.5 36.1103 221.74 36.1403L215.29 47.3003C214.8 48.1503 214.1 48.8703 213.27 49.3903C213.19 49.4403 213.11 49.4903 213.04 49.5503L198.59 61.4203C197.75 62.1103 197.56 63.2903 198.08 64.2003C198.14 64.3003 198.21 64.4003 198.29 64.5003C199.06 65.4303 200.44 65.5703 201.37 64.8003L213.02 55.2303L210.31 70.2703C210.21 70.8003 210.31 71.3203 210.57 71.7503C210.88 72.2903 211.42 72.6903 212.08 72.8103C213.27 73.0203 214.41 72.2303 214.62 71.0403L214.6 71.0303Z" fill="#040184"/>
<path d="M238.68 96.9103L249.12 78.9903C249.51 78.7403 249.89 78.4703 250.25 78.1703L260.21 69.8303C260.29 70.0603 260.36 70.2903 260.42 70.5303L261.98 84.4103C262.11 85.6103 263.2 86.4803 264.4 86.3403C265.6 86.2003 266.47 85.1203 266.33 83.9203L264.75 69.9203C264.75 69.8503 264.73 69.7803 264.72 69.7103C264.51 68.7203 264.15 67.7803 263.69 66.9103L265.02 65.7903C267.22 67.0803 270.08 66.9203 272.15 65.1903C274.78 62.9803 275.13 59.0603 272.92 56.4303C270.71 53.8003 266.79 53.4503 264.16 55.6603C262.15 57.3503 261.48 60.0403 262.26 62.3903L260.83 63.5903C260.04 62.9903 259.16 62.5003 258.2 62.1403L244.35 56.9403C243.22 56.5203 241.96 57.0903 241.53 58.2203C241.39 58.6003 241.36 58.9903 241.42 59.3703C241.55 60.1103 242.06 60.7603 242.81 61.0403L256.66 66.2403C256.89 66.3303 257.11 66.4203 257.32 66.5303L247.44 74.8103C246.69 75.4403 245.79 75.8803 244.83 76.0803C244.74 76.1003 244.65 76.1203 244.56 76.1603L226.92 82.3703C225.89 82.7303 225.31 83.7803 225.49 84.8103C225.51 84.9303 225.54 85.0403 225.58 85.1603C225.98 86.3003 227.23 86.9003 228.37 86.5003L242.59 81.4903L234.9 94.7003C234.63 95.1703 234.55 95.6903 234.64 96.1803C234.75 96.7903 235.11 97.3603 235.69 97.6903C236.73 98.3003 238.07 97.9503 238.68 96.9003V96.9103Z" fill="#040184"/>
<path d="M252.45 129.46L268.39 116.19C268.84 116.09 269.29 115.97 269.73 115.81L281.94 111.37C281.94 111.61 281.93 111.85 281.9 112.1L278.62 125.68C278.33 126.85 279.06 128.04 280.23 128.32C281.41 128.6 282.59 127.88 282.87 126.71L286.18 113.02C286.2 112.95 286.21 112.88 286.22 112.81C286.36 111.8 286.35 110.8 286.2 109.83L287.84 109.24C289.47 111.2 292.21 112.04 294.74 111.12C297.97 109.95 299.63 106.38 298.46 103.15C297.29 99.9203 293.72 98.2603 290.49 99.4303C288.02 100.33 286.47 102.63 286.4 105.1L284.65 105.74C284.11 104.91 283.45 104.14 282.67 103.48L271.43 93.8603C270.51 93.0703 269.13 93.1803 268.34 94.1003C268.08 94.4103 267.91 94.7703 267.85 95.1403C267.72 95.8803 267.97 96.6603 268.58 97.1903L279.82 106.81C280 106.97 280.18 107.14 280.34 107.31L268.22 111.71C267.3 112.04 266.3 112.15 265.33 112.01C265.24 112 265.14 111.99 265.05 111.99L246.35 111.79C245.26 111.78 244.35 112.56 244.17 113.6C244.15 113.72 244.14 113.84 244.14 113.96C244.13 115.17 245.1 116.16 246.31 116.17L261.39 116.33L249.64 126.11C249.23 126.45 248.97 126.92 248.89 127.41C248.78 128.02 248.93 128.68 249.36 129.19C250.13 130.12 251.51 130.25 252.44 129.47L252.45 129.46Z" fill="#040184"/>
<path d="M254.27 164.77L273.79 157.75C274.25 157.81 274.71 157.85 275.18 157.85H288.17C288.09 158.08 287.99 158.31 287.88 158.53L280.15 170.17C279.48 171.17 279.76 172.54 280.76 173.21C281.77 173.88 283.13 173.6 283.79 172.6L291.58 160.86C291.62 160.8 291.66 160.74 291.69 160.68C292.17 159.78 292.5 158.84 292.7 157.87H294.44C295.3 160.27 297.59 161.99 300.28 161.99C303.71 161.99 306.5 159.21 306.5 155.78C306.5 152.35 303.72 149.56 300.29 149.56C297.66 149.56 295.42 151.19 294.51 153.49H292.65C292.43 152.52 292.07 151.58 291.57 150.69L284.3 137.81C283.71 136.76 282.37 136.38 281.32 136.98C280.97 137.18 280.69 137.46 280.5 137.79C280.13 138.44 280.09 139.26 280.49 139.96L287.76 152.84C287.88 153.05 287.98 153.27 288.07 153.49H275.18C274.2 153.49 273.22 153.24 272.36 152.78C272.28 152.74 272.19 152.7 272.1 152.66L254.6 146.08C253.58 145.7 252.46 146.12 251.93 147.03C251.87 147.13 251.82 147.24 251.78 147.36C251.35 148.49 251.93 149.75 253.06 150.18L267.17 155.49L252.79 160.66C252.28 160.84 251.89 161.19 251.64 161.62C251.33 162.16 251.25 162.83 251.48 163.46C251.89 164.6 253.14 165.19 254.28 164.78L254.27 164.77Z" fill="#040184"/>
<path d="M243.89 198.56L264.63 198.64C265.04 198.86 265.46 199.05 265.9 199.21L278.1 203.66C277.94 203.84 277.78 204.02 277.6 204.19L266.36 212.49C265.39 213.2 265.18 214.58 265.9 215.55C266.62 216.52 267.99 216.73 268.96 216.01L280.29 207.65C280.35 207.61 280.4 207.56 280.46 207.51C281.21 206.83 281.85 206.05 282.37 205.22L284.01 205.82C284 208.37 285.56 210.77 288.09 211.69C291.32 212.87 294.88 211.2 296.06 207.98C297.24 204.76 295.57 201.19 292.35 200.01C289.88 199.11 287.22 199.88 285.57 201.73L283.82 201.09C283.94 200.11 283.93 199.1 283.76 198.09L281.34 183.5C281.14 182.31 280.01 181.5 278.82 181.7C278.42 181.77 278.06 181.94 277.77 182.18C277.2 182.66 276.88 183.43 277.02 184.22L279.44 198.81C279.48 199.05 279.5 199.29 279.51 199.53L267.4 195.11C266.48 194.77 265.65 194.21 264.99 193.48C264.93 193.41 264.86 193.34 264.79 193.28L250.59 181.11C249.76 180.4 248.57 180.42 247.76 181.09C247.67 181.17 247.58 181.25 247.5 181.34C246.71 182.26 246.82 183.64 247.74 184.43L259.19 194.24L243.91 194.18C243.37 194.18 242.88 194.37 242.5 194.69C242.02 195.09 241.72 195.69 241.72 196.36C241.72 197.57 242.69 198.55 243.9 198.56H243.89Z" fill="#040184"/>
<path d="M222.59 226.77L242.05 233.94C242.36 234.28 242.69 234.61 243.05 234.91L253 243.27C252.79 243.39 252.57 243.5 252.35 243.6L238.95 247.55C237.79 247.88 237.13 249.11 237.47 250.27C237.81 251.43 239.03 252.09 240.19 251.75L253.7 247.77C253.77 247.75 253.84 247.73 253.9 247.7C254.84 247.32 255.7 246.81 256.48 246.2L257.81 247.32C256.93 249.71 257.57 252.5 259.64 254.24C262.27 256.45 266.19 256.11 268.4 253.48C270.61 250.85 270.27 246.93 267.64 244.72C265.63 243.03 262.86 242.84 260.68 244.02L259.25 242.82C259.7 241.94 260.03 240.98 260.22 239.98L262.93 225.44C263.15 224.25 262.37 223.11 261.18 222.89C260.78 222.82 260.39 222.85 260.03 222.98C259.33 223.24 258.77 223.85 258.62 224.64L255.91 239.18C255.87 239.42 255.81 239.65 255.73 239.88L245.86 231.59C245.11 230.96 244.52 230.15 244.15 229.24C244.11 229.15 244.07 229.07 244.03 228.99L234.85 212.7C234.32 211.75 233.18 211.36 232.2 211.72C232.09 211.76 231.98 211.81 231.87 211.87C230.82 212.46 230.44 213.8 231.04 214.85L238.44 227.99L224.1 222.71C223.59 222.52 223.06 222.54 222.6 222.71C222.02 222.92 221.53 223.38 221.29 224.01C220.87 225.14 221.45 226.4 222.59 226.82V226.77Z" fill="#040184"/>
<path d="M192.92 245.99L208.76 259.38C208.94 259.81 209.14 260.23 209.37 260.63L215.86 271.88C215.62 271.92 215.38 271.95 215.14 271.96L201.2 271.09C200 271.01 198.95 271.93 198.88 273.14C198.8 274.35 199.72 275.39 200.93 275.46L214.99 276.34C215.06 276.34 215.13 276.34 215.2 276.34C216.22 276.3 217.2 276.12 218.13 275.81L219 277.32C217.35 279.27 217 282.11 218.35 284.44C220.07 287.41 223.87 288.44 226.84 286.72C229.81 285 230.84 281.2 229.12 278.23C227.81 275.95 225.27 274.83 222.82 275.19L221.89 273.58C222.62 272.9 223.26 272.12 223.78 271.24L231.3 258.5C231.91 257.46 231.57 256.12 230.53 255.5C230.18 255.29 229.8 255.2 229.42 255.2C228.67 255.2 227.94 255.58 227.53 256.28L220.01 269.02C219.89 269.23 219.75 269.43 219.61 269.62L213.17 258.45C212.68 257.6 212.4 256.64 212.37 255.66C212.37 255.57 212.36 255.47 212.34 255.38L209.29 236.93C209.11 235.86 208.18 235.1 207.13 235.1C207.01 235.1 206.89 235.1 206.77 235.13C205.58 235.33 204.77 236.45 204.97 237.65L207.43 252.53L195.76 242.66C195.35 242.31 194.85 242.14 194.35 242.14C193.73 242.14 193.11 242.4 192.68 242.92C191.9 243.84 192.01 245.22 192.94 246.01L192.92 245.99Z" fill="#040184"/>
<path d="M158.47 253.9L168.77 271.9C168.79 272.36 168.83 272.83 168.91 273.28L171.16 286.07C170.92 286.03 170.69 285.97 170.45 285.9L157.65 280.31C156.55 279.82 155.25 280.33 154.77 281.44C154.29 282.55 154.79 283.84 155.9 284.32L168.81 289.95C168.88 289.98 168.94 290 169.01 290.03C169.98 290.34 170.97 290.51 171.95 290.53L172.25 292.25C170.04 293.51 168.74 296.07 169.2 298.72C169.79 302.1 173.02 304.36 176.4 303.77C179.78 303.18 182.04 299.95 181.45 296.57C181 293.98 179 292.06 176.57 291.56L176.25 289.73C177.16 289.34 178.03 288.83 178.82 288.18L190.25 278.79C191.18 278.02 191.32 276.64 190.55 275.71C190.29 275.4 189.97 275.17 189.61 275.04C188.91 274.78 188.09 274.9 187.47 275.41L176.04 284.8C175.85 284.95 175.66 285.09 175.46 285.22L173.23 272.52C173.06 271.56 173.13 270.55 173.43 269.62C173.46 269.53 173.48 269.44 173.5 269.35L176.94 250.97C177.14 249.9 176.53 248.87 175.54 248.51C175.43 248.47 175.31 248.44 175.19 248.41C174 248.19 172.86 248.97 172.63 250.16L169.85 264.98L162.26 251.71C161.99 251.24 161.58 250.91 161.11 250.74C160.53 250.53 159.85 250.56 159.27 250.9C158.22 251.5 157.86 252.84 158.46 253.89L158.47 253.9Z" fill="#040184"/>
<path d="M123.39 249.56L126.91 270C126.77 270.44 126.65 270.89 126.57 271.35L124.31 284.14C124.1 284.02 123.9 283.89 123.7 283.74L113.58 274.11C112.71 273.27 111.32 273.31 110.48 274.19C109.65 275.07 109.68 276.45 110.56 277.29L120.76 287C120.81 287.05 120.87 287.1 120.92 287.14C121.72 287.76 122.59 288.26 123.51 288.62L123.21 290.33C120.7 290.76 118.6 292.71 118.13 295.37C117.53 298.75 119.79 301.98 123.17 302.58C126.55 303.18 129.78 300.92 130.38 297.54C130.84 294.95 129.62 292.46 127.51 291.16L127.83 289.33C128.82 289.28 129.81 289.09 130.78 288.75L144.73 283.83C145.87 283.43 146.47 282.18 146.07 281.04C145.93 280.66 145.7 280.34 145.41 280.09C144.84 279.61 144.03 279.43 143.27 279.7L129.32 284.62C129.09 284.7 128.86 284.77 128.63 284.82L130.88 272.13C131.05 271.17 131.46 270.25 132.06 269.47C132.12 269.4 132.17 269.32 132.22 269.24L141.74 253.15C142.29 252.21 142.07 251.04 141.27 250.36C141.18 250.28 141.08 250.21 140.97 250.15C139.93 249.53 138.59 249.88 137.97 250.92L130.29 263.9L127.69 248.84C127.6 248.31 127.32 247.86 126.94 247.54C126.46 247.14 125.82 246.94 125.16 247.06C123.97 247.27 123.17 248.4 123.37 249.59L123.39 249.56Z" fill="#040184"/>
<path d="M153.25 242.41C203.044 242.41 243.41 202.044 243.41 152.25C243.41 102.456 203.044 62.0903 153.25 62.0903C103.456 62.0903 63.0898 102.456 63.0898 152.25C63.0898 202.044 103.456 242.41 153.25 242.41Z" fill="#040184"/>
<path d="M147.18 196.63L135.41 181.43C134.92 180.8 134.12 180.48 133.33 180.61L116.85 183.26L114.81 172.01L127.76 176.12C127.98 176.19 128.2 176.22 128.42 176.22C129.35 176.22 130.21 175.62 130.51 174.69C130.88 173.54 130.24 172.31 129.09 171.94L113.93 167.13L113.73 166.03C115.66 164.83 116.76 162.53 116.33 160.16C115.77 157.06 112.79 155 109.69 155.56C106.59 156.12 104.53 159.1 105.09 162.2C105.51 164.51 107.26 166.24 109.41 166.74L112.94 186.14C113.15 187.31 114.26 188.1 115.44 187.91L132.75 185.12L143.73 199.29C144.16 199.85 144.81 200.14 145.46 200.14C145.93 200.14 146.4 199.99 146.8 199.68C147.76 198.94 147.93 197.56 147.19 196.61L147.18 196.63Z" fill="white"/>
<path d="M131 188.39C129.79 188.39 128.81 189.37 128.81 190.58C128.81 198.35 122.49 204.68 114.71 204.68C106.93 204.68 100.61 198.36 100.61 190.58C100.61 185.44 103.41 180.71 107.91 178.23C108.97 177.65 109.35 176.31 108.77 175.26C108.19 174.2 106.85 173.82 105.8 174.4C99.8998 177.65 96.2398 183.86 96.2398 190.59C96.2398 200.78 104.53 209.06 114.71 209.06C124.89 209.06 133.18 200.77 133.18 190.59C133.18 189.38 132.2 188.4 130.99 188.4L131 188.39Z" fill="white"/>
<path d="M152.12 116.24C145.86 105.78 134.41 99.2703 122.23 99.2703C121.98 99.2703 121.72 99.2903 121.47 99.3003L120.36 92.8003C120.16 91.6103 119.02 90.8103 117.83 91.0103C116.64 91.2103 115.84 92.3503 116.04 93.5403L117.09 99.6703C115.54 99.9103 114.01 100.25 112.52 100.68C112.38 100.71 112.25 100.75 112.13 100.8C103.97 103.3 96.8198 108.74 92.3398 116.23C91.9298 116.92 91.9298 117.79 92.3398 118.48C94.7998 122.59 98.0698 126.08 101.86 128.81C102.04 128.98 102.24 129.13 102.46 129.23C108.2 133.19 115.09 135.44 122.23 135.44C122.56 135.44 122.88 135.42 123.21 135.41L124.46 142.73C124.64 143.8 125.57 144.55 126.62 144.55C126.74 144.55 126.87 144.54 126.99 144.52C128.18 144.32 128.98 143.18 128.78 141.99L127.58 135.01C137.68 133.41 146.78 127.39 152.11 118.48C152.52 117.79 152.52 116.92 152.11 116.23L152.12 116.24ZM122.23 103.65C129.78 103.66 135.93 109.81 135.93 117.36C135.93 123.32 132.1 128.39 126.77 130.27L126.06 126.11C129.43 124.63 131.78 121.27 131.78 117.36C131.78 112.32 127.88 108.2 122.93 107.84L122.21 103.65C122.21 103.65 122.22 103.65 122.23 103.65ZM118.61 108.52C117.81 108.85 117.06 109.29 116.39 109.81L115.47 104.43C116.25 104.25 117.04 104.1 117.83 103.98L118.61 108.51V108.52ZM112.85 129.57L109.01 106.72C109.74 106.36 110.49 106.03 111.25 105.73L112.89 115.36C112.75 116.01 112.68 116.67 112.68 117.36C112.68 119.18 113.2 120.88 114.08 122.32L115.44 130.27C114.57 130.07 113.7 129.84 112.85 129.56V129.57ZM105.38 125.94L102.72 110.77C103.44 110.17 104.18 109.6 104.95 109.07L108.06 127.54C107.14 127.05 106.25 126.52 105.38 125.94ZM96.7998 117.37C97.4598 116.38 98.1698 115.43 98.9298 114.53L100.17 121.59C98.9298 120.29 97.7998 118.89 96.7998 117.37ZM119.99 130.99L119.21 126.43C120.01 126.7 120.86 126.85 121.74 126.9L122.45 131.06C122.37 131.06 122.29 131.07 122.22 131.07C121.47 131.08 120.73 131.04 119.99 130.99ZM137.57 126.88C139.29 124.11 140.3 120.86 140.3 117.37C140.3 113.88 139.29 110.63 137.57 107.86C141.56 110.2 145.04 113.43 147.65 117.37C145.05 121.32 141.57 124.54 137.57 126.88Z" fill="white"/>
<path d="M206.26 88.0903C205.34 87.3003 203.96 87.4103 203.17 88.3303L196.72 95.8603C196.29 95.5803 195.84 95.3003 195.37 95.0603C188.76 91.6303 179.6 92.7303 173.08 97.7503C166.18 103.05 163.48 111.69 165.66 121.45C165.92 122.63 167.1 123.37 168.27 123.11C169.45 122.85 170.19 121.68 169.93 120.5C167.48 109.51 172.52 103.71 175.75 101.23C180.88 97.2803 188.29 96.3203 193.35 98.9603C195.99 100.33 199.09 103.26 198.82 109.39C198.36 119.95 193.56 122.39 189.7 124.35C187.04 125.7 183.73 127.38 184.47 131.68C185.28 136.42 183.06 139.46 180.46 140.01C177.92 140.55 175.72 138.68 174.87 135.25C174.58 134.08 173.39 133.36 172.22 133.66C171.05 133.95 170.33 135.14 170.63 136.32C172.07 142.09 176.05 144.48 179.69 144.48C180.26 144.48 180.83 144.42 181.37 144.31C186.03 143.33 190.07 138.43 188.8 130.96C188.65 130.07 188.73 129.77 191.7 128.26C196.06 126.05 202.65 122.71 203.22 109.59C203.41 105.3 202.28 101.62 200.01 98.8103L206.53 91.2003C207.32 90.2803 207.21 88.9003 206.29 88.1103L206.26 88.0903Z" fill="white"/>
<path d="M188.16 108.58C187.28 107.76 185.89 107.8 185.07 108.69L156.05 139.76C155.22 140.64 155.27 142.03 156.16 142.85C156.58 143.24 157.12 143.44 157.65 143.44C158.24 143.44 158.82 143.21 159.25 142.74L188.27 111.67C189.1 110.79 189.05 109.4 188.16 108.58Z" fill="white"/>
<path d="M194.47 112.66C194.47 112.66 194.53 112.66 194.57 112.66C195.74 112.66 196.7 111.74 196.76 110.57C197 105.1 194.88 102.38 193.06 101.06C189.76 98.6703 185.12 99.1203 182.14 100.23C181.01 100.65 180.43 101.92 180.86 103.05C181.28 104.18 182.55 104.76 183.68 104.33C185.72 103.56 188.73 103.32 190.49 104.6C191.87 105.6 192.51 107.54 192.38 110.37C192.33 111.58 193.26 112.6 194.47 112.65V112.66Z" fill="white"/>
<path d="M179.71 177.51L182.19 177.43C183.4 177.39 184.35 176.38 184.31 175.17C184.27 173.96 183.28 173.03 182.05 173.05L179.57 173.13C178.36 173.17 177.41 174.18 177.45 175.39C177.49 176.57 178.46 177.51 179.64 177.51C179.66 177.51 179.69 177.51 179.71 177.51Z" fill="white"/>
<path d="M200.47 173.05C200.47 173.05 200.42 173.05 200.4 173.05L197.92 173.13C196.71 173.17 195.76 174.18 195.8 175.39C195.84 176.57 196.81 177.51 197.99 177.51C198.01 177.51 198.04 177.51 198.06 177.51L200.54 177.43C201.75 177.39 202.7 176.38 202.66 175.17C202.62 173.99 201.65 173.05 200.47 173.05Z" fill="white"/>
<path d="M212.49 174.13C212.76 164.36 208.05 160.21 204.02 158.45C197.47 155.59 188.78 157.52 185.36 159.85C185.15 159.72 184.94 159.59 184.72 159.47C179.28 156.46 171.73 157.06 165.94 160.96C160.55 164.59 157.9 170.25 158.65 176.47C158.8 177.67 159.89 178.53 161.09 178.38C162.29 178.23 163.15 177.14 163 175.94C162.25 169.73 166.05 166.16 168.39 164.58C172.78 161.62 178.63 161.09 182.6 163.29C183.06 163.54 183.48 163.83 183.88 164.15C184.09 164.5 184.39 164.76 184.73 164.94C186.81 167.09 187.84 170.29 187.7 174.37C187.65 175.77 188.45 177.28 189.74 179.61C190.38 180.77 191.46 182.71 191.49 183.34C191.49 183.41 191.49 183.47 191.48 183.52C191.39 183.52 191.3 183.52 191.23 183.51C190.65 183.48 189.86 183.43 189.1 183.9C187.82 184.7 187.79 186.13 187.76 187.94C187.75 188.66 187.72 190.13 187.53 190.63C187 191.09 185.71 191.18 185.15 191.22C184.57 191.26 182.79 191.39 182.51 193.17C182.38 193.98 182.58 195.11 184.31 195.82C184.72 195.99 185.14 196.14 185.56 196.29C187.54 197 187.91 197.27 188.06 198.12C188.47 200.51 188.09 202.11 186.95 202.88C184.14 204.76 175.81 203.2 165.31 196.61C164.29 195.97 162.93 196.28 162.29 197.3C161.65 198.32 161.96 199.68 162.98 200.32C167.14 202.93 171.89 205.32 176.38 206.72C176.53 206.8 176.69 206.87 176.86 206.91C180.18 207.79 185.93 209.31 191.71 209.31C199.03 209.31 206.4 206.87 208.99 197.61C209.25 196.67 209.59 195.13 209.94 193.5C210.37 191.54 211.06 188.34 211.43 187.39C213.14 185.59 214.77 180.62 214.9 177.98C215.02 175.52 213.25 174.55 212.47 174.13H212.49ZM208.38 184.28C207.39 185.03 206.98 186.6 205.68 192.57C205.34 194.14 205.02 195.61 204.79 196.43C202.92 203.14 197.59 205.11 191.09 204.93C192.24 203.4 193.02 201.04 192.4 197.38C192.37 197.2 192.31 197.05 192.27 196.88C197.56 196.21 199.73 194.19 199.98 193.95L198.43 192.4L196.93 190.81C196.93 190.81 195.4 192.13 191.46 192.57C192.08 191.26 192.13 189.56 192.16 188.02C192.16 187.97 192.16 187.93 192.16 187.88C192.89 187.82 193.75 187.59 194.51 186.91C195.36 186.14 195.82 185.01 195.89 183.53C195.97 181.77 194.81 179.69 193.59 177.49C193.03 176.49 192.2 174.99 192.1 174.45C192.24 169.76 191.08 165.82 188.79 162.9C191.32 161.76 197.23 160.38 202.08 162.37C206.36 164.14 208.39 168.21 208.11 174.47C208.01 176.69 209.7 177.59 210.42 177.98C210.46 178 210.5 178.02 210.55 178.05C210.34 180.35 208.94 183.5 208.4 184.28H208.38Z" fill="white"/>
<path d="M361.45 151.77V84.5403H371.73V112.2H402.27V84.5403H412.55V151.77H402.27V121.42H371.73V151.77H361.45Z" fill="#040184"/>
<path d="M422.14 151.77L445.67 84.5403H455.95L433.38 151.77H422.14ZM435.78 134.1V124.98H466.61V134.1H435.78ZM469.59 151.77L447.12 84.5403H456.63L480.06 151.77H469.59Z" fill="#040184"/>
<path d="M489.57 151.77V84.5403H502.34L532.79 140.34H529.81V84.5403H540.09V151.77H528.56L496.96 95.7803H499.84V151.77H489.56H489.57Z" fill="#040184"/>
<path d="M557.95 84.5403H578.41C585.77 84.5403 591.86 85.9503 596.66 88.7703C601.46 91.5903 605.03 95.5103 607.37 100.54C609.71 105.57 610.88 111.47 610.88 118.26C610.88 125.05 609.71 130.76 607.37 135.79C605.03 140.82 601.46 144.74 596.66 147.56C591.86 150.38 585.77 151.79 578.41 151.79H557.95V84.5403ZM568.23 142.65H578.7C583.44 142.65 587.39 141.66 590.56 139.67C593.73 137.69 596.1 134.87 597.67 131.22C599.24 127.57 600.02 123.22 600.02 118.16C600.02 113.1 599.23 108.76 597.67 105.15C596.1 101.53 593.73 98.7203 590.56 96.7003C587.39 94.6803 583.44 93.6703 578.7 93.6703H568.23V142.65Z" fill="#040184"/>
<path d="M621.33 151.77V143.03H632.57V93.2803H621.33V84.5403H654.08V93.2803H642.84V143.03H654.08V151.77H621.33Z" fill="#040184"/>
<path d="M668.01 128.24V118.73H702.97V128.24H668.01Z" fill="#040184"/>
<path d="M382.58 229.75C378.29 229.75 374.61 229.13 371.54 227.88C368.47 226.63 365.9 224.97 363.86 222.89C361.81 220.81 360.23 218.46 359.11 215.83C357.99 213.21 357.27 210.52 356.95 207.76H368.19C368.64 210.39 369.49 212.64 370.74 214.53C371.99 216.42 373.62 217.88 375.64 218.9C377.66 219.92 379.98 220.44 382.6 220.44C385.03 220.44 387.26 220.06 389.27 219.29C391.29 218.52 392.9 217.4 394.12 215.93C395.34 214.46 395.94 212.73 395.94 210.74C395.94 208.31 395.27 206.4 393.92 205.03C392.58 203.65 390.81 202.55 388.64 201.72C386.46 200.89 384.06 200.17 381.44 199.56C378.81 198.95 376.19 198.23 373.56 197.4C370.93 196.57 368.53 195.46 366.36 194.09C364.18 192.71 362.42 190.86 361.08 188.52C359.74 186.18 359.06 183.16 359.06 179.44C359.06 176.17 359.91 173.07 361.61 170.12C363.31 167.18 365.88 164.79 369.34 162.97C372.8 161.14 377.15 160.23 382.4 160.23C386.3 160.23 389.7 160.82 392.58 162.01C395.46 163.2 397.86 164.75 399.78 166.67C401.7 168.59 403.17 170.69 404.2 172.96C405.22 175.23 405.8 177.46 405.93 179.63H395.08C394.76 177.77 394.07 176.09 393.02 174.59C391.96 173.09 390.52 171.87 388.7 170.94C386.87 170.01 384.65 169.55 382.02 169.55C380.03 169.55 378.11 169.89 376.26 170.56C374.4 171.23 372.88 172.27 371.7 173.68C370.51 175.09 369.92 176.85 369.92 178.96C369.92 181.07 370.58 182.88 371.89 184.19C373.2 185.5 374.96 186.56 377.17 187.36C379.38 188.16 381.79 188.9 384.42 189.57C387.04 190.24 389.65 191.01 392.25 191.87C394.84 192.73 397.24 193.87 399.45 195.28C401.66 196.69 403.42 198.55 404.73 200.85C406.04 203.15 406.7 206.1 406.7 209.69C406.7 214.04 405.66 217.73 403.58 220.73C401.5 223.74 398.65 226 395.03 227.5C391.41 229 387.27 229.76 382.59 229.76L382.58 229.75Z" fill="#040184"/>
<path d="M447.02 229.66C441.7 229.66 437.11 228.75 433.24 226.92C429.36 225.09 426.18 222.58 423.68 219.38C421.18 216.18 419.33 212.46 418.11 208.24C416.89 204.01 416.29 199.57 416.29 194.89C416.29 190.21 416.9 185.77 418.11 181.54C419.33 177.31 421.18 173.6 423.68 170.4C426.18 167.2 429.36 164.69 433.24 162.86C437.11 161.04 441.71 160.12 447.02 160.12C452.33 160.12 456.91 161.03 460.75 162.86C464.59 164.69 467.76 167.2 470.26 170.4C472.76 173.6 474.6 177.32 475.78 181.54C476.97 185.77 477.56 190.22 477.56 194.89C477.56 199.56 476.97 204.01 475.78 208.24C474.59 212.47 472.75 216.18 470.26 219.38C467.76 222.58 464.59 225.09 460.75 226.92C456.91 228.75 452.33 229.66 447.02 229.66ZM447.02 220.54C451.56 220.54 455.3 219.44 458.21 217.23C461.12 215.02 463.28 211.98 464.69 208.11C466.1 204.24 466.8 199.84 466.8 194.9C466.8 189.96 466.09 185.49 464.69 181.65C463.28 177.81 461.12 174.78 458.21 172.57C455.3 170.36 451.57 169.26 447.02 169.26C442.73 169.26 439.11 170.36 436.17 172.57C433.22 174.78 430.98 177.8 429.45 181.65C427.91 185.49 427.15 189.91 427.15 194.9C427.15 199.89 427.92 204.23 429.45 208.11C430.99 211.99 433.23 215.03 436.17 217.23C439.11 219.44 442.73 220.54 447.02 220.54Z" fill="#040184"/>
<path d="M518.28 229.85C512.96 229.85 508.44 228.86 504.69 226.87C500.94 224.89 497.89 222.2 495.52 218.8C493.15 215.41 491.42 211.61 490.33 207.42C489.24 203.23 488.7 198.92 488.7 194.5C488.7 190.08 489.28 185.5 490.43 181.34C491.58 177.18 493.37 173.51 495.81 170.34C498.24 167.17 501.32 164.67 505.03 162.85C508.74 161.03 513.13 160.11 518.19 160.11C522.67 160.11 526.74 160.97 530.39 162.7C534.04 164.43 537.08 166.81 539.51 169.86C541.94 172.9 543.61 176.41 544.5 180.38L534.32 182.4C533.68 179.97 532.57 177.78 531.01 175.82C529.44 173.87 527.55 172.31 525.34 171.16C523.13 170.01 520.71 169.43 518.09 169.43C514.06 169.43 510.63 170.49 507.81 172.6C504.99 174.71 502.88 177.64 501.47 181.39C500.06 185.14 499.36 189.44 499.36 194.31C499.36 199.43 500.08 203.98 501.52 207.95C502.96 211.92 505.09 215.01 507.91 217.22C510.73 219.43 514.18 220.53 518.28 220.53C520.84 220.53 523.21 219.97 525.39 218.85C527.57 217.73 529.44 216.19 531.01 214.24C532.58 212.29 533.68 210.03 534.32 207.47L544.5 209.58C543.6 213.49 541.99 216.98 539.65 220.05C537.31 223.12 534.35 225.52 530.77 227.25C527.18 228.98 523.02 229.84 518.28 229.84V229.85Z" fill="#040184"/>
<path d="M556.31 228.6V219.86H567.55V170.11H556.31V161.37H589.06V170.11H577.82V219.86H589.06V228.6H556.31Z" fill="#040184"/>
<path d="M597.13 228.6L620.66 161.37H630.94L608.37 228.6H597.13ZM610.77 210.93V201.81H641.6V210.93H610.77ZM644.58 228.6L622.11 161.37H631.62L655.05 228.6H644.58Z" fill="#040184"/>
<path d="M664.65 228.6V161.37H674.93V219.48H706.24V228.6H664.65Z" fill="#040184"/>
</svg>
